<svg width="32" height="32" viewBox="0 0 32 32" fill="none" xmlns="http://www.w3.org/2000/svg">
<path d="M29.3346 16.0001C29.3369 17.7563 28.9911 19.4955 28.3172 21.1173C27.6434 22.7391 26.6548 24.2113 25.4086 25.4488C24.1727 26.6825 22.7057 27.6607 21.0915 28.3272C19.4774 28.9938 17.7477 29.3357 16.0013 29.3334C8.63731 29.3334 2.66798 23.3641 2.66798 16.0001C2.66332 12.5813 3.97656 9.2922 6.33465 6.81676C7.57888 5.50382 9.07793 4.45859 10.7401 3.74501C12.4022 3.03144 14.1925 2.66454 16.0013 2.66676C17.7477 2.6645 19.4774 3.00641 21.0915 3.67297C22.7057 4.33952 24.1727 5.31764 25.4086 6.55143C26.6548 7.78891 27.6434 9.26108 28.3172 10.8829C28.9911 12.5046 29.3369 14.2439 29.3346 16.0001V16.0001Z" stroke="#313131" stroke-width="2" stroke-linecap="round" stroke-linejoin="round"/>
<path d="M29.3361 16.0001C27.3908 16.0001 22.0241 15.2668 17.2208 17.3754C12.0028 19.6668 8.22479 23.2208 6.57812 25.4314" stroke="#313131" stroke-width="2" stroke-linecap="round" stroke-linejoin="round"/>
<path d="M11 3.63599C13.0867 5.56199 17.64 10.4653 19.3333 15.3333C21.0267 20.2013 21.6533 26.1867 22.04 27.89" stroke="#313131" stroke-width="2" stroke-linecap="round" stroke-linejoin="round"/>
<path d="M2.76953 14.3335C5.2882 14.4855 11.9555 14.6221 16.2222 12.8001C20.4889 10.9781 24.1602 7.62681 25.4195 6.56348M3.66686 21.0755C4.84174 23.9194 6.96067 26.2716 9.66687 27.7361" stroke="#313131" stroke-width="2" stroke-linecap="round" stroke-linejoin="round"/>
<path d="M2.66798 16.0001C2.66332 12.5813 3.97656 9.2922 6.33465 6.81676M16.0013 2.66676C14.1925 2.66454 12.4022 3.03144 10.7401 3.74501C9.07793 4.45859 7.57888 5.50382 6.33465 6.81676M21.3346 3.77609C22.8531 4.44045 24.2346 5.38158 25.4086 6.55142C26.6548 7.78891 27.6434 9.26107 28.3172 10.8829C28.9911 12.5046 29.3369 14.2439 29.3346 16.0001C29.3346 17.6414 29.038 19.2141 28.4946 20.6668M16.0013 29.3334C17.7477 29.3357 19.4774 28.9938 21.0915 28.3272C22.7057 27.6607 24.1727 26.6825 25.4086 25.4488" stroke="#313131" stroke-width="2" stroke-linecap="round" stroke-linejoin="round"/>
</svg>
