<svg width="496" height="216" viewBox="0 0 496 216" fill="none" xmlns="http://www.w3.org/2000/svg">
<path d="M0 4C0 1.79086 1.79086 0 4 0H492C494.209 0 496 1.79086 496 4V216H0V4Z" fill="#F3F3F3"/>
<g filter="url(#filter0_d_310_272)">
<path d="M171.88 113.768C171.88 119.142 167.581 123.442 162.207 123.442C156.832 123.442 152.533 119.142 152.533 113.768C152.533 108.394 156.832 104.095 162.207 104.095H171.88V113.768ZM182.628 74H171.88V93.5616C168.226 93.5616 164.571 93.5616 162.207 93.5616C151.028 93.5616 142 102.59 142 113.768C142 124.946 151.028 133.975 162.207 133.975C173.385 133.975 182.413 124.946 182.413 113.768C182.413 108.179 182.413 93.5616 182.413 93.5616L182.628 74Z" fill="#231F20"/>
<path d="M289.464 123.442C294.838 123.442 299.138 119.143 299.138 113.769C299.138 108.394 294.838 104.095 289.464 104.095C284.09 104.095 279.791 108.394 279.791 113.769C280.006 119.143 284.305 123.442 289.464 123.442ZM269.473 113.769C269.473 102.59 278.501 93.562 289.679 93.562C300.857 93.562 309.886 102.59 309.886 113.769C309.886 124.947 300.857 133.975 289.679 133.975C278.501 133.975 269.473 124.947 269.473 113.769Z" fill="#231F20"/>
<path d="M343.634 113.769C343.634 108.609 339.334 104.31 334.175 104.31C329.016 104.31 324.717 108.609 324.717 113.769C324.717 116.348 324.717 133.115 324.717 133.115C319.343 133.115 314.184 133.115 314.184 133.115C314.184 133.115 314.184 119.358 314.184 113.769C314.184 102.59 323.212 93.562 334.39 93.562C345.568 93.562 354.597 102.59 354.597 113.769C354.597 119.358 354.597 133.115 354.597 133.115C354.597 133.115 349.438 133.115 344.063 133.115C343.634 133.115 343.634 116.348 343.634 113.769Z" fill="#231F20"/>
<path d="M244.753 106.889C243.248 105.815 243.678 104.095 246.257 103.45C249.482 102.59 255.071 103.235 259.8 105.385L264.744 98.5058C262.595 96.7861 257.865 94.4215 250.987 93.9915C250.987 93.9915 239.379 92.4868 234.649 101.3C234.649 101.3 230.565 109.469 238.734 114.628C243.678 117.637 252.276 118.927 255.071 120.217C257.221 121.507 256.576 123.871 253.351 124.516C247.762 125.806 240.453 122.582 238.089 120.862L232.93 127.956C236.369 130.535 240.668 132.9 247.547 133.975C247.547 133.975 258.51 135.909 264.529 128.386C265.604 127.096 270.548 117.852 260.66 112.478C255.501 109.684 247.332 108.394 244.753 106.889Z" fill="#231F20"/>
<path d="M195.309 140.853C195.739 141.068 200.683 144.508 205.412 144.508C217.02 144.723 217.665 132.685 217.665 129.89C215.515 132.255 211.001 133.76 208.206 133.76C197.028 133.76 188.215 125.161 188.215 113.983C188.215 108.394 188.215 94.4214 188.215 94.4214C188.215 94.4214 193.374 94.4214 198.748 94.4214C198.748 94.4214 198.748 111.618 198.748 113.983C198.748 119.142 203.047 123.441 208.206 123.441C213.366 123.441 217.665 119.142 217.665 113.983C217.665 111.833 217.665 94.4214 217.665 94.4214C223.039 94.4214 228.198 94.4214 228.198 94.4214V113.983C228.198 131.395 229.058 149.237 212.076 153.321C199.393 156.331 190.364 148.377 189.72 147.947L195.309 140.853Z" fill="#231F20"/>
</g>
<defs>
<filter id="filter0_d_310_272" x="132" y="64" width="232.598" height="99.9995" filterUnits="userSpaceOnUse" color-interpolation-filters="sRGB">
<feFlood flood-opacity="0" result="BackgroundImageFix"/>
<feColorMatrix in="SourceAlpha" type="matrix" values="0 0 0 0 0 0 0 0 0 0 0 0 0 0 0 0 0 0 127 0" result="hardAlpha"/>
<feOffset/>
<feGaussianBlur stdDeviation="5"/>
<feComposite in2="hardAlpha" operator="out"/>
<feColorMatrix type="matrix" values="0 0 0 0 0 0 0 0 0 0 0 0 0 0 0 0 0 0 0.25 0"/>
<feBlend mode="normal" in2="BackgroundImageFix" result="effect1_dropShadow_310_272"/>
<feBlend mode="normal" in="SourceGraphic" in2="effect1_dropShadow_310_272" result="shape"/>
</filter>
</defs>
</svg>
