<svg width="496" height="216" viewBox="0 0 496 216" fill="none" xmlns="http://www.w3.org/2000/svg">
<path d="M0 4C0 1.79086 1.79086 0 4 0H492C494.209 0 496 1.79086 496 4V216H0V4Z" fill="#F3F3F3"/>
<g filter="url(#filter0_d_310_263)">
<path d="M314.715 96.0943C314.641 95.7617 314.497 95.4488 314.291 95.1769C314.086 94.9049 313.825 94.6802 313.525 94.5179L306.446 90.5917C306.067 89.8222 305.639 89.0771 305.167 88.3608L305.316 80.2704C305.318 79.931 305.251 79.5948 305.118 79.2826C304.985 78.9704 304.789 78.689 304.542 78.456C301.018 75.2602 296.849 72.8564 292.318 71.4066C291.992 71.3051 291.649 71.2739 291.31 71.3149C290.972 71.3559 290.646 71.4683 290.354 71.6445L283.424 75.8087C282.561 75.779 281.729 75.779 280.866 75.8087L273.936 71.6445C273.644 71.4683 273.318 71.3559 272.98 71.3149C272.641 71.2739 272.298 71.3051 271.972 71.4066C267.435 72.8575 263.265 75.2724 259.748 78.4857C259.499 78.7107 259.301 78.9864 259.168 79.2943C259.034 79.6021 258.968 79.9349 258.974 80.2704L259.123 88.3608C258.647 89.0747 258.231 89.8183 257.814 90.5917L250.735 94.5179C250.44 94.6819 250.183 94.9075 249.983 95.1796C249.783 95.4516 249.644 95.7636 249.575 96.0943C248.564 100.74 248.564 105.548 249.575 110.193C249.649 110.526 249.793 110.839 249.999 111.111C250.204 111.383 250.465 111.607 250.765 111.77L257.844 115.696C258.223 116.465 258.651 117.21 259.123 117.927L258.974 126.017C258.971 126.356 259.039 126.693 259.172 127.005C259.305 127.317 259.501 127.598 259.748 127.832C263.272 131.027 267.441 133.431 271.972 134.881C272.298 134.982 272.641 135.014 272.98 134.973C273.318 134.932 273.644 134.819 273.936 134.643L280.866 130.479H283.424L290.384 134.643C290.746 134.881 291.171 135.005 291.604 135C291.846 134.989 292.085 134.949 292.318 134.881C296.855 133.43 301.025 131.015 304.542 127.802C304.791 127.577 304.989 127.301 305.122 126.993C305.256 126.685 305.322 126.353 305.316 126.017L305.167 117.927C305.643 117.213 306.059 116.469 306.476 115.696L313.555 111.77C313.85 111.606 314.107 111.38 314.307 111.108C314.507 110.836 314.646 110.524 314.715 110.193C315.726 105.548 315.726 100.74 314.715 96.0943V96.0943ZM282.145 116.231C279.556 116.231 277.026 115.464 274.874 114.026C272.722 112.588 271.044 110.544 270.054 108.152C269.063 105.761 268.804 103.129 269.309 100.591C269.814 98.0518 271.06 95.7198 272.891 93.8895C274.721 92.0592 277.053 90.8127 279.592 90.3077C282.13 89.8027 284.762 90.0619 287.153 91.0525C289.545 92.043 291.589 93.7205 293.027 95.8727C294.465 98.025 295.232 100.555 295.232 103.144C295.232 106.615 293.854 109.944 291.399 112.398C288.945 114.852 285.616 116.231 282.145 116.231Z" fill="#3E4129"/>
<path d="M226.679 119.724H219.066M188.613 125.51V80.4403C188.613 79.9557 188.806 79.4909 189.148 79.1483C189.491 78.8056 189.956 78.6131 190.44 78.6131H217.238C217.478 78.6131 217.716 78.6604 217.938 78.7522C218.159 78.844 218.361 78.9786 218.53 79.1483C218.7 79.3179 218.835 79.5194 218.927 79.7411C219.018 79.9627 219.066 80.2003 219.066 80.4403V125.51C219.066 125.75 219.018 125.987 218.927 126.209C218.835 126.431 218.7 126.632 218.53 126.802C218.361 126.972 218.159 127.106 217.938 127.198C217.716 127.29 217.478 127.337 217.238 127.337H190.44C189.956 127.337 189.491 127.145 189.148 126.802C188.806 126.459 188.613 125.995 188.613 125.51V125.51ZM209.93 127.337V134.95V127.337ZM197.749 127.337V134.95V127.337ZM209.93 78.6131V71V78.6131ZM197.749 78.6131V71V78.6131ZM188.613 102.975H181H188.613ZM226.679 102.975H219.066H226.679ZM188.613 86.2262H181H188.613ZM226.679 86.2262H219.066H226.679ZM188.613 119.724H181H188.613Z" stroke="#3E4129" stroke-width="5.61989" stroke-linecap="round" stroke-linejoin="round"/>
</g>
<defs>
<filter id="filter0_d_310_263" x="168.191" y="58.1899" width="157.281" height="89.5703" filterUnits="userSpaceOnUse" color-interpolation-filters="sRGB">
<feFlood flood-opacity="0" result="BackgroundImageFix"/>
<feColorMatrix in="SourceAlpha" type="matrix" values="0 0 0 0 0 0 0 0 0 0 0 0 0 0 0 0 0 0 127 0" result="hardAlpha"/>
<feOffset/>
<feGaussianBlur stdDeviation="5"/>
<feComposite in2="hardAlpha" operator="out"/>
<feColorMatrix type="matrix" values="0 0 0 0 0 0 0 0 0 0 0 0 0 0 0 0 0 0 0.25 0"/>
<feBlend mode="normal" in2="BackgroundImageFix" result="effect1_dropShadow_310_263"/>
<feBlend mode="normal" in="SourceGraphic" in2="effect1_dropShadow_310_263" result="shape"/>
</filter>
</defs>
</svg>
