<svg width="496" height="216" viewBox="0 0 496 216" fill="none" xmlns="http://www.w3.org/2000/svg">
<path d="M0 4C0 1.79086 1.79086 0 4 0H492C494.209 0 496 1.79086 496 4V216H0V4Z" fill="#D9FFE8"/>
<g filter="url(#filter0_d_324_136)">
<g filter="url(#filter1_d_324_136)">
<ellipse cx="247.714" cy="90.7475" rx="56.4801" ry="58.7475" fill="white"/>
</g>
<g filter="url(#filter2_d_324_136)">
<path d="M188 88.8071H235.988C236.062 88.8071 236.131 88.7678 236.169 88.7039L239.528 82.9997C239.622 82.8408 239.86 82.8715 239.911 83.0489L244.025 97.5594C244.086 97.7763 244.4 97.7565 244.434 97.5336L247.784 75.4033C247.819 75.1723 248.148 75.1631 248.196 75.3919L252.249 94.8245C252.293 95.0345 252.587 95.0509 252.654 94.847L254.588 88.9514C254.616 88.8653 254.696 88.8071 254.787 88.8071H308" stroke="url(#paint0_linear_324_136)" stroke-width="1.67683" stroke-linecap="round"/>
</g>
<path d="M235.619 104.03L223.664 116.466C222.333 117.849 220.638 118.792 218.792 119.173C216.947 119.555 215.034 119.359 213.296 118.61C211.557 117.861 210.071 116.593 209.026 114.966C207.98 113.339 207.422 111.426 207.422 109.468V104.03L212.888 75.6056C213.618 71.8063 215.591 68.3874 218.472 65.9307C221.352 63.474 224.962 62.1313 228.687 62.1309H266.721C270.446 62.1313 274.056 63.474 276.936 65.9307C279.816 68.3874 281.789 71.8063 282.519 75.6056L287.986 104.03V109.464C287.985 111.421 287.427 113.334 286.382 114.962C285.336 116.589 283.85 117.857 282.112 118.606C280.374 119.355 278.461 119.551 276.615 119.169C274.77 118.787 273.075 117.845 271.744 116.461L259.788 104.03H235.619Z" stroke="#212529" stroke-width="2.96262" stroke-linecap="round" stroke-linejoin="round"/>
<path d="M235.617 62.1309L239.645 70.5107H255.758L259.786 62.1309" stroke="#212529" stroke-width="2.96262" stroke-linecap="round" stroke-linejoin="round"/>
</g>
<path d="M201.488 187.06C199.591 187.06 197.92 186.688 196.476 185.946C195.053 185.203 193.95 184.192 193.166 182.914C192.382 181.614 191.99 180.139 191.99 178.489C191.99 176.819 192.372 175.344 193.135 174.065C193.919 172.766 194.981 171.755 196.322 171.033C197.662 170.29 199.178 169.919 200.87 169.919C202.499 169.919 203.964 170.27 205.263 170.971C206.583 171.652 207.625 172.642 208.388 173.941C209.151 175.22 209.533 176.757 209.533 178.551C209.533 178.737 209.522 178.953 209.502 179.201C209.481 179.428 209.46 179.644 209.44 179.851H195.919V177.035H206.903L205.046 177.871C205.046 177.004 204.871 176.251 204.52 175.612C204.17 174.973 203.685 174.478 203.066 174.127C202.448 173.756 201.726 173.57 200.901 173.57C200.076 173.57 199.343 173.756 198.704 174.127C198.085 174.478 197.6 174.983 197.25 175.643C196.899 176.282 196.724 177.046 196.724 177.932V178.675C196.724 179.583 196.92 180.387 197.312 181.088C197.724 181.769 198.291 182.295 199.013 182.666C199.756 183.017 200.622 183.192 201.612 183.192C202.499 183.192 203.273 183.058 203.933 182.79C204.613 182.522 205.232 182.12 205.789 181.583L208.357 184.368C207.594 185.234 206.635 185.904 205.48 186.379C204.324 186.833 202.994 187.06 201.488 187.06ZM216.961 186.812L209.969 170.167H214.95L220.766 184.492H218.291L224.324 170.167H228.965L221.942 186.812H216.961ZM238.402 187.06C236.628 187.06 235.05 186.688 233.668 185.946C232.307 185.203 231.224 184.192 230.42 182.914C229.636 181.614 229.244 180.139 229.244 178.489C229.244 176.819 229.636 175.344 230.42 174.065C231.224 172.766 232.307 171.755 233.668 171.033C235.05 170.29 236.628 169.919 238.402 169.919C240.155 169.919 241.723 170.29 243.105 171.033C244.487 171.755 245.57 172.755 246.353 174.034C247.137 175.313 247.529 176.798 247.529 178.489C247.529 180.139 247.137 181.614 246.353 182.914C245.57 184.192 244.487 185.203 243.105 185.946C241.723 186.688 240.155 187.06 238.402 187.06ZM238.402 183.099C239.206 183.099 239.928 182.914 240.568 182.542C241.207 182.171 241.713 181.645 242.084 180.964C242.455 180.263 242.641 179.438 242.641 178.489C242.641 177.52 242.455 176.695 242.084 176.014C241.713 175.334 241.207 174.808 240.568 174.436C239.928 174.065 239.206 173.879 238.402 173.879C237.598 173.879 236.876 174.065 236.236 174.436C235.597 174.808 235.081 175.334 234.689 176.014C234.318 176.695 234.132 177.52 234.132 178.489C234.132 179.438 234.318 180.263 234.689 180.964C235.081 181.645 235.597 182.171 236.236 182.542C236.876 182.914 237.598 183.099 238.402 183.099ZM250.755 186.812V163.855H255.582V186.812H250.755ZM264.578 186.812L257.586 170.167H262.567L268.384 184.492H265.909L271.942 170.167H276.583L269.56 186.812H264.578ZM286.36 187.06C284.462 187.06 282.791 186.688 281.348 185.946C279.924 185.203 278.821 184.192 278.037 182.914C277.253 181.614 276.861 180.139 276.861 178.489C276.861 176.819 277.243 175.344 278.006 174.065C278.79 172.766 279.852 171.755 281.193 171.033C282.534 170.29 284.05 169.919 285.741 169.919C287.37 169.919 288.835 170.27 290.134 170.971C291.454 171.652 292.496 172.642 293.259 173.941C294.022 175.22 294.404 176.757 294.404 178.551C294.404 178.737 294.394 178.953 294.373 179.201C294.352 179.428 294.332 179.644 294.311 179.851H280.791V177.035H291.774L289.918 177.871C289.918 177.004 289.742 176.251 289.392 175.612C289.041 174.973 288.556 174.478 287.938 174.127C287.319 173.756 286.597 173.57 285.772 173.57C284.947 173.57 284.215 173.756 283.575 174.127C282.956 174.478 282.472 174.983 282.121 175.643C281.77 176.282 281.595 177.046 281.595 177.932V178.675C281.595 179.583 281.791 180.387 282.183 181.088C282.596 181.769 283.163 182.295 283.885 182.666C284.627 183.017 285.493 183.192 286.484 183.192C287.37 183.192 288.144 183.058 288.804 182.79C289.485 182.522 290.103 182.12 290.66 181.583L293.228 184.368C292.465 185.234 291.506 185.904 290.351 186.379C289.196 186.833 287.865 187.06 286.36 187.06ZM299.443 187.06C298.618 187.06 297.906 186.781 297.308 186.224C296.73 185.647 296.442 184.914 296.442 184.027C296.442 183.141 296.73 182.429 297.308 181.893C297.906 181.336 298.618 181.057 299.443 181.057C300.288 181.057 301 181.336 301.578 181.893C302.155 182.429 302.444 183.141 302.444 184.027C302.444 184.914 302.155 185.647 301.578 186.224C301 186.781 300.288 187.06 299.443 187.06Z" fill="url(#paint1_linear_324_136)"/>
<defs>
<filter id="filter0_d_324_136" x="177.16" y="22" width="141.68" height="137.495" filterUnits="userSpaceOnUse" color-interpolation-filters="sRGB">
<feFlood flood-opacity="0" result="BackgroundImageFix"/>
<feColorMatrix in="SourceAlpha" type="matrix" values="0 0 0 0 0 0 0 0 0 0 0 0 0 0 0 0 0 0 127 0" result="hardAlpha"/>
<feOffset/>
<feGaussianBlur stdDeviation="5"/>
<feComposite in2="hardAlpha" operator="out"/>
<feColorMatrix type="matrix" values="0 0 0 0 0 0 0 0 0 0 0 0 0 0 0 0 0 0 0.25 0"/>
<feBlend mode="normal" in2="BackgroundImageFix" result="effect1_dropShadow_324_136"/>
<feBlend mode="normal" in="SourceGraphic" in2="effect1_dropShadow_324_136" result="shape"/>
</filter>
<filter id="filter1_d_324_136" x="189.383" y="30.1484" width="116.664" height="121.198" filterUnits="userSpaceOnUse" color-interpolation-filters="sRGB">
<feFlood flood-opacity="0" result="BackgroundImageFix"/>
<feColorMatrix in="SourceAlpha" type="matrix" values="0 0 0 0 0 0 0 0 0 0 0 0 0 0 0 0 0 0 127 0" result="hardAlpha"/>
<feOffset/>
<feGaussianBlur stdDeviation="0.92582"/>
<feComposite in2="hardAlpha" operator="out"/>
<feColorMatrix type="matrix" values="0 0 0 0 0 0 0 0 0 0 0 0 0 0 0 0 0 0 0.25 0"/>
<feBlend mode="normal" in2="BackgroundImageFix" result="effect1_dropShadow_324_136"/>
<feBlend mode="normal" in="SourceGraphic" in2="effect1_dropShadow_324_136" result="shape"/>
</filter>
<filter id="filter2_d_324_136" x="185.309" y="72.5351" width="125.383" height="27.8669" filterUnits="userSpaceOnUse" color-interpolation-filters="sRGB">
<feFlood flood-opacity="0" result="BackgroundImageFix"/>
<feColorMatrix in="SourceAlpha" type="matrix" values="0 0 0 0 0 0 0 0 0 0 0 0 0 0 0 0 0 0 127 0" result="hardAlpha"/>
<feOffset/>
<feGaussianBlur stdDeviation="0.92582"/>
<feComposite in2="hardAlpha" operator="out"/>
<feColorMatrix type="matrix" values="0 0 0 0 0 0 0 0 0 0 0 0 0 0 0 0 0 0 0.25 0"/>
<feBlend mode="normal" in2="BackgroundImageFix" result="effect1_dropShadow_324_136"/>
<feBlend mode="normal" in="SourceGraphic" in2="effect1_dropShadow_324_136" result="shape"/>
</filter>
<linearGradient id="paint0_linear_324_136" x1="183.836" y1="90.011" x2="309.747" y2="88.7923" gradientUnits="userSpaceOnUse">
<stop stop-color="#04C4D9"/>
<stop offset="0.6875" stop-color="#A84194"/>
<stop offset="1" stop-color="#F20574"/>
</linearGradient>
<linearGradient id="paint1_linear_324_136" x1="176.451" y1="179.709" x2="316.124" y2="179.202" gradientUnits="userSpaceOnUse">
<stop stop-color="#04C4D9"/>
<stop offset="1" stop-color="#F20574"/>
</linearGradient>
</defs>
</svg>
