<svg width="120" height="120" viewBox="0 0 120 120" fill="none" xmlns="http://www.w3.org/2000/svg">
<mask id="mask0_606_158" style="mask-type:alpha" maskUnits="userSpaceOnUse" x="0" y="0" width="120" height="120">
<rect width="120" height="120" fill="#D9D9D9"/>
</mask>
<g mask="url(#mask0_606_158)">
<path d="M54.9961 79.999H64.9961V58.999L72.9961 66.999L79.9961 59.999L59.9961 39.999L39.9961 59.999L46.9961 66.999L54.9961 58.999V79.999ZM59.9961 109.999C53.0794 109.999 46.5794 108.686 40.4961 106.059C34.4128 103.436 29.1211 99.874 24.6211 95.374C20.1211 90.874 16.5594 85.5824 13.9361 79.499C11.3094 73.4157 9.99609 66.9157 9.99609 59.999C9.99609 53.0824 11.3094 46.5824 13.9361 40.499C16.5594 34.4157 20.1211 29.124 24.6211 24.624C29.1211 20.124 34.4128 16.5607 40.4961 13.934C46.5794 11.3107 53.0794 9.99902 59.9961 9.99902C66.9128 9.99902 73.4128 11.3107 79.4961 13.934C85.5794 16.5607 90.8711 20.124 95.3711 24.624C99.8711 29.124 103.433 34.4157 106.056 40.499C108.683 46.5824 109.996 53.0824 109.996 59.999C109.996 66.9157 108.683 73.4157 106.056 79.499C103.433 85.5824 99.8711 90.874 95.3711 95.374C90.8711 99.874 85.5794 103.436 79.4961 106.059C73.4128 108.686 66.9128 109.999 59.9961 109.999ZM59.9961 99.999C71.1628 99.999 80.6211 96.124 88.3711 88.374C96.1211 80.624 99.9961 71.1657 99.9961 59.999C99.9961 48.8324 96.1211 39.374 88.3711 31.624C80.6211 23.874 71.1628 19.999 59.9961 19.999C48.8294 19.999 39.3711 23.874 31.6211 31.624C23.8711 39.374 19.9961 48.8324 19.9961 59.999C19.9961 71.1657 23.8711 80.624 31.6211 88.374C39.3711 96.124 48.8294 99.999 59.9961 99.999Z" fill="#BF5700"/>
</g>
</svg>
