<svg width="795" height="288" viewBox="0 0 795 288" fill="none" xmlns="http://www.w3.org/2000/svg">
<path d="M0.4 3.99998H44.4V118H91.6V3.99998H135.6V284H91.6V158H44.4V284H0.4V3.99998ZM168.369 3.99998H288.369V44H212.369V118H272.769V158H212.369V244H288.369V284H168.369V3.99998ZM313.681 3.99998H357.681V244H430.081V284H313.681V3.99998ZM451.181 3.99998H495.181V244H567.581V284H451.181V3.99998ZM650.719 288C629.119 288 612.585 281.867 601.119 269.6C589.652 257.333 583.919 240 583.919 217.6V70.4C583.919 48 589.652 30.6667 601.119 18.4C612.585 6.13332 629.119 -1.52588e-05 650.719 -1.52588e-05C672.319 -1.52588e-05 688.852 6.13332 700.319 18.4C711.785 30.6667 717.519 48 717.519 70.4V217.6C717.519 240 711.785 257.333 700.319 269.6C688.852 281.867 672.319 288 650.719 288ZM650.719 248C665.919 248 673.519 238.8 673.519 220.4V67.6C673.519 49.2 665.919 40 650.719 40C635.519 40 627.919 49.2 627.919 67.6V220.4C627.919 238.8 635.519 248 650.719 248ZM750.875 120.8V3.99998H794.875V120.8L789.275 210H756.475L750.875 120.8ZM751.675 241.6H794.075V284H751.675V241.6Z" fill="#005F86"/>
</svg>
