<svg width="668" height="308" viewBox="0 0 668 308" fill="none" xmlns="http://www.w3.org/2000/svg">
<path d="M121.6 -7.62939e-06H123.1V-1.50001H121.6V-7.62939e-06ZM96 -7.62939e-06V-1.50001H95.1586L94.72 -0.782016L96 -7.62939e-06ZM65.6 49.76L64.32 50.542L65.6 52.6372L66.88 50.542L65.6 49.76ZM35.2 -7.62939e-06L36.48 -0.782016L36.0414 -1.50001H35.2V-7.62939e-06ZM9.6 -7.62939e-06V-1.50001H8.1V-7.62939e-06H9.6ZM9.6 112H8.1V113.5H9.6V112ZM35.2 112V113.5H36.7V112H35.2ZM35.2 46.88L36.4809 46.0994L33.7 41.5363V46.88H35.2ZM64.16 94.4L62.8791 95.1806L63.3175 95.9H64.16V94.4ZM67.04 94.4V95.9H67.8825L68.3209 95.1806L67.04 94.4ZM96 46.88H97.5V41.5363L94.7191 46.0994L96 46.88ZM96 112H94.5V113.5H96V112ZM121.6 112V113.5H123.1V112H121.6ZM121.6 -1.50001H96V1.49999H121.6V-1.50001ZM94.72 -0.782016L64.32 48.978L66.88 50.542L97.28 0.782001L94.72 -0.782016ZM66.88 48.978L36.48 -0.782016L33.92 0.782001L64.32 50.542L66.88 48.978ZM35.2 -1.50001H9.6V1.49999H35.2V-1.50001ZM8.1 -7.62939e-06V112H11.1V-7.62939e-06H8.1ZM9.6 113.5H35.2V110.5H9.6V113.5ZM36.7 112V46.88H33.7V112H36.7ZM33.9191 47.6606L62.8791 95.1806L65.4409 93.6194L36.4809 46.0994L33.9191 47.6606ZM64.16 95.9H67.04V92.9H64.16V95.9ZM68.3209 95.1806L97.2809 47.6606L94.7191 46.0994L65.7591 93.6194L68.3209 95.1806ZM94.5 46.88V112H97.5V46.88H94.5ZM96 113.5H121.6V110.5H96V113.5ZM123.1 112V-7.62939e-06H120.1V112H123.1ZM212.05 112L210.621 112.455L210.953 113.5H212.05V112ZM240.05 112V113.5H242.144L241.47 111.517L240.05 112ZM201.97 -7.62939e-06L203.39 -0.482862L203.044 -1.50001H201.97V-7.62939e-06ZM169.33 -7.62939e-06V-1.50001H168.256L167.91 -0.482862L169.33 -7.62939e-06ZM131.25 112L129.83 111.517L129.156 113.5H131.25V112ZM159.25 112V113.5H160.347L160.679 112.455L159.25 112ZM164.85 94.4V92.9H163.753L163.421 93.9452L164.85 94.4ZM206.45 94.4L207.879 93.9452L207.547 92.9H206.45V94.4ZM172.53 70.4L171.101 69.944L170.477 71.9H172.53V70.4ZM185.65 29.28L187.079 28.824L185.65 24.3453L184.221 28.824L185.65 29.28ZM198.77 70.4V71.9H200.823L200.199 69.944L198.77 70.4ZM212.05 113.5H240.05V110.5H212.05V113.5ZM241.47 111.517L203.39 -0.482862L200.55 0.482846L238.63 112.483L241.47 111.517ZM201.97 -1.50001H169.33V1.49999H201.97V-1.50001ZM167.91 -0.482862L129.83 111.517L132.67 112.483L170.75 0.482846L167.91 -0.482862ZM131.25 113.5H159.25V110.5H131.25V113.5ZM160.679 112.455L166.279 94.8548L163.421 93.9452L157.821 111.545L160.679 112.455ZM164.85 95.9H206.45V92.9H164.85V95.9ZM205.021 94.8548L210.621 112.455L213.479 111.545L207.879 93.9452L205.021 94.8548ZM173.959 70.8559L187.079 29.7359L184.221 28.824L171.101 69.944L173.959 70.8559ZM184.221 29.7359L197.341 70.8559L200.199 69.944L187.079 28.824L184.221 29.7359ZM198.77 68.9H172.53V71.9H198.77V68.9ZM249.6 -7.62939e-06V-1.50001H248.1V-7.62939e-06H249.6ZM249.6 112H248.1V113.5H249.6V112ZM275.2 87.36H273.7V88.86H275.2V87.36ZM275.2 24.64V23.14H273.7V24.64H275.2ZM294.4 -1.50001H249.6V1.49999H294.4V-1.50001ZM248.1 -7.62939e-06V112H251.1V-7.62939e-06H248.1ZM249.6 113.5H294.4V110.5H249.6V113.5ZM294.4 113.5C326.151 113.5 350.3 88.4652 350.3 56H347.3C347.3 86.8948 324.409 110.5 294.4 110.5V113.5ZM350.3 56C350.3 23.5348 326.151 -1.50001 294.4 -1.50001V1.49999C324.409 1.49999 347.3 25.1052 347.3 56H350.3ZM294.4 85.86H275.2V88.86H294.4V85.86ZM276.7 87.36V24.64H273.7V87.36H276.7ZM275.2 26.14H294.4V23.14H275.2V26.14ZM294.4 26.14C302.844 26.14 309.876 29.0492 314.8 34.1606C319.727 39.2758 322.66 46.7203 322.66 56H325.66C325.66 46.0796 322.513 37.8442 316.96 32.0794C311.404 26.3108 303.556 23.14 294.4 23.14V26.14ZM322.66 56C322.66 65.2797 319.727 72.7242 314.8 77.8394C309.876 82.9508 302.844 85.86 294.4 85.86V88.86C303.556 88.86 311.404 85.6892 316.96 79.9206C322.513 74.1558 325.66 65.9203 325.66 56H322.66ZM423.994 -7.62939e-06V-1.50001H422.494V-7.62939e-06H423.994ZM423.994 42.88V44.38H425.494V42.88H423.994ZM388.794 42.88H387.294V44.38H388.794V42.88ZM388.794 -7.62939e-06H390.294V-1.50001H388.794V-7.62939e-06ZM363.194 -7.62939e-06V-1.50001H361.694V-7.62939e-06H363.194ZM363.194 112H361.694V113.5H363.194V112ZM388.794 112V113.5H390.294V112H388.794ZM388.794 67.52V66.02H387.294V67.52H388.794ZM423.994 67.52H425.494V66.02H423.994V67.52ZM423.994 112H422.494V113.5H423.994V112ZM449.594 112V113.5H451.094V112H449.594ZM449.594 -7.62939e-06H451.094V-1.50001H449.594V-7.62939e-06ZM422.494 -7.62939e-06V42.88H425.494V-7.62939e-06H422.494ZM423.994 41.38H388.794V44.38H423.994V41.38ZM390.294 42.88V-7.62939e-06H387.294V42.88H390.294ZM388.794 -1.50001H363.194V1.49999H388.794V-1.50001ZM361.694 -7.62939e-06V112H364.694V-7.62939e-06H361.694ZM363.194 113.5H388.794V110.5H363.194V113.5ZM390.294 112V67.52H387.294V112H390.294ZM388.794 69.02H423.994V66.02H388.794V69.02ZM422.494 67.52V112H425.494V67.52H422.494ZM423.994 113.5H449.594V110.5H423.994V113.5ZM451.094 112V-7.62939e-06H448.094V112H451.094ZM449.594 -1.50001H423.994V1.49999H449.594V-1.50001ZM540.019 112L538.589 112.455L538.922 113.5H540.019V112ZM568.019 112V113.5H570.113L569.439 111.517L568.019 112ZM529.939 -7.62939e-06L531.359 -0.482862L531.013 -1.50001H529.939V-7.62939e-06ZM497.299 -7.62939e-06V-1.50001H496.224L495.879 -0.482862L497.299 -7.62939e-06ZM459.219 112L457.799 111.517L457.124 113.5H459.219V112ZM487.219 112V113.5H488.316L488.648 112.455L487.219 112ZM492.819 94.4V92.9H491.722L491.389 93.9452L492.819 94.4ZM534.419 94.4L535.848 93.9452L535.516 92.9H534.419V94.4ZM500.499 70.4L499.07 69.944L498.446 71.9H500.499V70.4ZM513.619 29.28L515.048 28.824L513.619 24.3453L512.19 28.824L513.619 29.28ZM526.739 70.4V71.9H528.792L528.168 69.944L526.739 70.4ZM540.019 113.5H568.019V110.5H540.019V113.5ZM569.439 111.517L531.359 -0.482862L528.519 0.482846L566.599 112.483L569.439 111.517ZM529.939 -1.50001H497.299V1.49999H529.939V-1.50001ZM495.879 -0.482862L457.799 111.517L460.639 112.483L498.719 0.482846L495.879 -0.482862ZM459.219 113.5H487.219V110.5H459.219V113.5ZM488.648 112.455L494.248 94.8548L491.389 93.9452L485.789 111.545L488.648 112.455ZM492.819 95.9H534.419V92.9H492.819V95.9ZM532.989 94.8548L538.589 112.455L541.448 111.545L535.848 93.9452L532.989 94.8548ZM501.928 70.8559L515.048 29.7359L512.19 28.824L499.07 69.944L501.928 70.8559ZM512.19 29.7359L525.31 70.8559L528.168 69.944L515.048 28.824L512.19 29.7359ZM526.739 68.9H500.499V71.9H526.739V68.9ZM598.043 112L596.616 112.465L596.954 113.5H598.043V112ZM630.683 112V113.5H631.771L632.109 112.465L630.683 112ZM667.163 -7.62939e-06L668.589 0.464543L669.229 -1.50001H667.163V-7.62939e-06ZM639.163 -7.62939e-06V-1.50001H638.047L637.726 -0.432309L639.163 -7.62939e-06ZM614.363 82.4L612.926 82.8323L614.363 87.6047L615.799 82.8323L614.363 82.4ZM589.563 -7.62939e-06L590.999 -0.432309L590.678 -1.50001H589.563V-7.62939e-06ZM561.562 -7.62939e-06V-1.50001H559.496L560.136 0.464543L561.562 -7.62939e-06ZM598.043 113.5H630.683V110.5H598.043V113.5ZM632.109 112.465L668.589 0.464543L665.736 -0.464558L629.256 111.535L632.109 112.465ZM667.163 -1.50001H639.163V1.49999H667.163V-1.50001ZM637.726 -0.432309L612.926 81.9677L615.799 82.8323L640.599 0.432293L637.726 -0.432309ZM615.799 81.9677L590.999 -0.432309L588.126 0.432293L612.926 82.8323L615.799 81.9677ZM589.563 -1.50001H561.562V1.49999H589.563V-1.50001ZM560.136 0.464543L596.616 112.465L599.469 111.535L562.989 -0.464558L560.136 0.464543ZM36.48 308L35.0538 308.465L35.391 309.5H36.48V308ZM69.12 308V309.5H70.209L70.5463 308.465L69.12 308ZM105.6 196L107.026 196.465L107.666 194.5H105.6V196ZM77.6 196V194.5H76.485L76.1636 195.568L77.6 196ZM52.8 278.4L51.3636 278.832L52.8 283.605L54.2364 278.832L52.8 278.4ZM28 196L29.4364 195.568L29.115 194.5H28V196ZM0 196V194.5H-2.06613L-1.42625 196.465L0 196ZM36.48 309.5H69.12V306.5H36.48V309.5ZM70.5463 308.465L107.026 196.465L104.174 195.535L67.6938 307.535L70.5463 308.465ZM105.6 194.5H77.6V197.5H105.6V194.5ZM76.1636 195.568L51.3636 277.968L54.2364 278.832L79.0364 196.432L76.1636 195.568ZM54.2364 277.968L29.4364 195.568L26.5636 196.432L51.3636 278.832L54.2364 277.968ZM28 194.5H0V197.5H28V194.5ZM-1.42625 196.465L35.0538 308.465L37.9063 307.535L1.42625 195.535L-1.42625 196.465ZM180.019 308L178.589 308.455L178.922 309.5H180.019V308ZM208.019 308V309.5H210.113L209.439 307.517L208.019 308ZM169.939 196L171.359 195.517L171.013 194.5H169.939V196ZM137.299 196V194.5H136.224L135.879 195.517L137.299 196ZM99.2188 308L97.7986 307.517L97.1244 309.5H99.2188V308ZM127.219 308V309.5H128.316L128.648 308.455L127.219 308ZM132.819 290.4V288.9H131.722L131.389 289.945L132.819 290.4ZM174.419 290.4L175.848 289.945L175.516 288.9H174.419V290.4ZM140.499 266.4L139.07 265.944L138.446 267.9H140.499V266.4ZM153.619 225.28L155.048 224.824L153.619 220.345L152.19 224.824L153.619 225.28ZM166.739 266.4V267.9H168.792L168.168 265.944L166.739 266.4ZM180.019 309.5H208.019V306.5H180.019V309.5ZM209.439 307.517L171.359 195.517L168.519 196.483L206.599 308.483L209.439 307.517ZM169.939 194.5H137.299V197.5H169.939V194.5ZM135.879 195.517L97.7986 307.517L100.639 308.483L138.719 196.483L135.879 195.517ZM99.2188 309.5H127.219V306.5H99.2188V309.5ZM128.648 308.455L134.248 290.855L131.389 289.945L125.789 307.545L128.648 308.455ZM132.819 291.9H174.419V288.9H132.819V291.9ZM172.989 290.855L178.589 308.455L181.448 307.545L175.848 289.945L172.989 290.855ZM141.928 266.856L155.048 225.736L152.19 224.824L139.07 265.944L141.928 266.856ZM152.19 225.736L165.31 266.856L168.168 265.944L155.048 224.824L152.19 225.736ZM166.739 264.9H140.499V267.9H166.739V264.9ZM276.449 308L275.148 308.747L275.58 309.5H276.449V308ZM303.969 308V309.5H306.572L305.266 307.248L303.969 308ZM280.129 266.88L279.451 265.542L278.035 266.259L278.831 267.632L280.129 266.88ZM217.569 196V194.5H216.069V196H217.569ZM217.569 308H216.069V309.5H217.569V308ZM243.169 308V309.5H244.669V308H243.169ZM243.169 271.2V269.7H241.669V271.2H243.169ZM255.329 271.2L256.63 270.453L256.197 269.7H255.329V271.2ZM243.169 220V218.5H241.669V220H243.169ZM243.169 248.8H241.669V250.3H243.169V248.8ZM276.449 309.5H303.969V306.5H276.449V309.5ZM305.266 307.248L281.426 266.128L278.831 267.632L302.671 308.752L305.266 307.248ZM280.807 268.218C293.586 261.746 302.269 248.774 302.269 234.4H299.269C299.269 247.546 291.312 259.534 279.451 265.542L280.807 268.218ZM302.269 234.4C302.269 212.292 284.477 194.5 262.369 194.5V197.5C282.82 197.5 299.269 213.948 299.269 234.4H302.269ZM262.369 194.5H217.569V197.5H262.369V194.5ZM216.069 196V308H219.069V196H216.069ZM217.569 309.5H243.169V306.5H217.569V309.5ZM244.669 308V271.2H241.669V308H244.669ZM243.169 272.7H255.329V269.7H243.169V272.7ZM254.028 271.947L275.148 308.747L277.75 307.253L256.63 270.453L254.028 271.947ZM243.169 221.5H262.369V218.5H243.169V221.5ZM262.369 221.5C268.434 221.5 273.669 226.915 273.669 234.4H276.669C276.669 225.565 270.383 218.5 262.369 218.5V221.5ZM273.669 234.4C273.669 241.885 268.434 247.3 262.369 247.3V250.3C270.383 250.3 276.669 243.235 276.669 234.4H273.669ZM262.369 247.3H243.169V250.3H262.369V247.3ZM244.669 248.8V220H241.669V248.8H244.669ZM428.006 196H429.506V194.5H428.006V196ZM402.406 196V194.5H401.565L401.126 195.218L402.406 196ZM372.006 245.76L370.726 246.542L372.006 248.637L373.286 246.542L372.006 245.76ZM341.606 196L342.886 195.218L342.448 194.5H341.606V196ZM316.006 196V194.5H314.506V196H316.006ZM316.006 308H314.506V309.5H316.006V308ZM341.606 308V309.5H343.106V308H341.606ZM341.606 242.88L342.887 242.099L340.106 237.536V242.88H341.606ZM370.566 290.4L369.285 291.181L369.724 291.9H370.566V290.4ZM373.446 290.4V291.9H374.289L374.727 291.181L373.446 290.4ZM402.406 242.88H403.906V237.536L401.125 242.099L402.406 242.88ZM402.406 308H400.906V309.5H402.406V308ZM428.006 308V309.5H429.506V308H428.006ZM428.006 194.5H402.406V197.5H428.006V194.5ZM401.126 195.218L370.726 244.978L373.286 246.542L403.686 196.782L401.126 195.218ZM373.286 244.978L342.886 195.218L340.326 196.782L370.726 246.542L373.286 244.978ZM341.606 194.5H316.006V197.5H341.606V194.5ZM314.506 196V308H317.506V196H314.506ZM316.006 309.5H341.606V306.5H316.006V309.5ZM343.106 308V242.88H340.106V308H343.106ZM340.325 243.661L369.285 291.181L371.847 289.619L342.887 242.099L340.325 243.661ZM370.566 291.9H373.446V288.9H370.566V291.9ZM374.727 291.181L403.687 243.661L401.125 242.099L372.165 289.619L374.727 291.181ZM400.906 242.88V308H403.906V242.88H400.906ZM402.406 309.5H428.006V306.5H402.406V309.5ZM429.506 308V196H426.506V308H429.506ZM518.456 308L517.027 308.455L517.359 309.5H518.456V308ZM546.456 308V309.5H548.551L547.876 307.517L546.456 308ZM508.376 196L509.796 195.517L509.451 194.5H508.376V196ZM475.736 196V194.5H474.662L474.316 195.517L475.736 196ZM437.656 308L436.236 307.517L435.562 309.5H437.656V308ZM465.656 308V309.5H466.753L467.086 308.455L465.656 308ZM471.256 290.4V288.9H470.159L469.827 289.945L471.256 290.4ZM512.856 290.4L514.286 289.945L513.953 288.9H512.856V290.4ZM478.936 266.4L477.507 265.944L476.883 267.9H478.936V266.4ZM492.056 225.28L493.485 224.824L492.056 220.345L490.627 224.824L492.056 225.28ZM505.176 266.4V267.9H507.229L506.605 265.944L505.176 266.4ZM518.456 309.5H546.456V306.5H518.456V309.5ZM547.876 307.517L509.796 195.517L506.956 196.483L545.036 308.483L547.876 307.517ZM508.376 194.5H475.736V197.5H508.376V194.5ZM474.316 195.517L436.236 307.517L439.076 308.483L477.156 196.483L474.316 195.517ZM437.656 309.5H465.656V306.5H437.656V309.5ZM467.086 308.455L472.686 290.855L469.827 289.945L464.227 307.545L467.086 308.455ZM471.256 291.9H512.856V288.9H471.256V291.9ZM511.427 290.855L517.027 308.455L519.886 307.545L514.286 289.945L511.427 290.855ZM480.365 266.856L493.485 225.736L490.627 224.824L477.507 265.944L480.365 266.856ZM490.627 225.736L503.747 266.856L506.605 265.944L493.485 224.824L490.627 225.736ZM505.176 264.9H478.936V267.9H505.176V264.9Z" fill="white"/>
</svg>
