<svg width="32" height="32" viewBox="0 0 32 32" fill="none" xmlns="http://www.w3.org/2000/svg">
<path fill-rule="evenodd" clip-rule="evenodd" d="M1.33203 3.78392C1.33203 3.13396 1.59023 2.51063 2.04982 2.05104C2.5094 1.59145 3.13274 1.33326 3.7827 1.33326H28.212C28.5341 1.33273 28.8532 1.39574 29.1509 1.51868C29.4486 1.64162 29.7191 1.82207 29.947 2.0497C30.1749 2.27734 30.3557 2.54769 30.4789 2.84527C30.6022 3.14285 30.6655 3.46182 30.6654 3.78392V28.2133C30.6657 28.5354 30.6025 28.8545 30.4795 29.1522C30.3564 29.4499 30.1758 29.7205 29.9481 29.9483C29.7203 30.1762 29.4499 30.3569 29.1522 30.4802C28.8546 30.6034 28.5355 30.6668 28.2134 30.6666H3.7827C3.46076 30.6666 3.14198 30.6032 2.84456 30.4799C2.54715 30.3567 2.27693 30.176 2.04934 29.9483C1.82176 29.7206 1.64127 29.4503 1.51819 29.1528C1.39512 28.8553 1.33186 28.5365 1.33203 28.2146V3.78392ZM12.9427 12.5173H16.9147V14.5119C17.488 13.3653 18.9547 12.3333 21.1587 12.3333C25.384 12.3333 26.3854 14.6173 26.3854 18.8079V26.5706H22.1094V19.7626C22.1094 17.3759 21.536 16.0293 20.08 16.0293C18.06 16.0293 17.22 17.4813 17.22 19.7626V26.5706H12.9427V12.5173ZM5.60937 26.3879H9.8867V12.3333H5.60937V26.3866V26.3879ZM10.4987 7.74926C10.5068 8.11549 10.4416 8.47964 10.307 8.82034C10.1724 9.16104 9.97117 9.47144 9.71501 9.7333C9.45885 9.99516 9.15296 10.2032 8.81531 10.3453C8.47765 10.4873 8.11502 10.5605 7.7487 10.5605C7.38238 10.5605 7.01975 10.4873 6.68209 10.3453C6.34443 10.2032 6.03855 9.99516 5.78239 9.7333C5.52623 9.47144 5.32496 9.16104 5.19038 8.82034C5.0558 8.47964 4.99063 8.11549 4.9987 7.74926C5.01453 7.03039 5.31121 6.34631 5.82521 5.8435C6.33921 5.3407 7.02966 5.05915 7.7487 5.05915C8.46773 5.05915 9.15818 5.3407 9.67218 5.8435C10.1862 6.34631 10.4829 7.03039 10.4987 7.74926V7.74926Z" fill="#313131"/>
</svg>
