<svg width="32" height="32" viewBox="0 0 32 32" fill="none" xmlns="http://www.w3.org/2000/svg">
<g clip-path="url(#clip0_504_133)">
<path d="M31.3342 8.67594C31.153 8.02958 30.8 7.4444 30.3128 6.98261C29.8119 6.50661 29.1979 6.16612 28.5288 5.99327C26.0248 5.33327 15.9928 5.33327 15.9928 5.33327C11.8106 5.28569 7.6294 5.49497 3.47282 5.95994C2.80374 6.14556 2.19091 6.49365 1.68882 6.97327C1.19549 7.44794 0.838156 8.03327 0.65149 8.67461C0.20308 11.0903 -0.0147877 13.5431 0.000822911 15.9999C-0.0151771 18.4546 0.202156 20.9066 0.65149 23.3253C0.834156 23.9639 1.19016 24.5466 1.68482 25.0173C2.17949 25.4879 2.79549 25.8279 3.47282 26.0079C6.01016 26.6666 15.9928 26.6666 15.9928 26.6666C20.1804 26.7143 24.3669 26.505 28.5288 26.0399C29.1979 25.8671 29.8119 25.5266 30.3128 25.0506C30.7998 24.5889 31.1524 24.0036 31.3328 23.3573C31.7929 20.9425 32.0167 18.4887 32.0008 16.0306C32.0354 13.5621 31.812 11.0967 31.3342 8.67461V8.67594ZM12.8035 20.5653V11.4359L21.1502 16.0013L12.8035 20.5653Z" fill="#313131"/>
</g>
<defs>
<clipPath id="clip0_504_133">
<rect width="32" height="32" fill="white"/>
</clipPath>
</defs>
</svg>
