<svg width="1920" height="6420" viewBox="0 0 1920 6420" fill="none" xmlns="http://www.w3.org/2000/svg">
<rect width="1920" height="6420" fill="#121212"/>
<line x1="120.5" y1="2.18557e-08" x2="120.5" y2="6420" stroke="#3C3C3C"/>
<line x1="480.5" y1="2.18557e-08" x2="480.5" y2="6420" stroke="#3C3C3C"/>
<line x1="840.5" y1="2.18557e-08" x2="840.5" y2="6420" stroke="#3C3C3C"/>
<line x1="1200.5" y1="2.18557e-08" x2="1200.5" y2="6420" stroke="#3C3C3C"/>
<line x1="1560.5" y1="2.18557e-08" x2="1560.5" y2="6420" stroke="#3C3C3C"/>
<line x1="240.5" y1="2.18557e-08" x2="240.5" y2="6420" stroke="#3C3C3C"/>
<line x1="600.5" y1="2.18557e-08" x2="600.5" y2="6420" stroke="#3C3C3C"/>
<line x1="960.5" y1="2.18557e-08" x2="960.5" y2="6420" stroke="#3C3C3C"/>
<line x1="1320.5" y1="2.18557e-08" x2="1320.5" y2="6420" stroke="#3C3C3C"/>
<line x1="1680.5" y1="2.18557e-08" x2="1680.5" y2="6420" stroke="#3C3C3C"/>
<line x1="360.5" y1="2.18557e-08" x2="360.5" y2="6420" stroke="#3C3C3C"/>
<line x1="720.5" y1="2.18557e-08" x2="720.5" y2="6420" stroke="#3C3C3C"/>
<line x1="1080.5" y1="2.18557e-08" x2="1080.5" y2="6420" stroke="#3C3C3C"/>
<line x1="1440.5" y1="2.18557e-08" x2="1440.5" y2="6420" stroke="#3C3C3C"/>
<line x1="1800.5" y1="2.18557e-08" x2="1800.5" y2="6420" stroke="#3C3C3C"/>
<line y1="119.5" x2="1920" y2="119.5" stroke="#3C3C3C"/>
<line y1="239.5" x2="1920" y2="239.5" stroke="#3C3C3C"/>
<line y1="359.5" x2="1920" y2="359.5" stroke="#3C3C3C"/>
<line y1="479.5" x2="1920" y2="479.5" stroke="#3C3C3C"/>
<line y1="599.5" x2="1920" y2="599.5" stroke="#3C3C3C"/>
<line y1="719.5" x2="1920" y2="719.5" stroke="#3C3C3C"/>
<line y1="839.5" x2="1920" y2="839.5" stroke="#3C3C3C"/>
<line y1="959.5" x2="1920" y2="959.5" stroke="#3C3C3C"/>
<line y1="1079.5" x2="1920" y2="1079.5" stroke="#3C3C3C"/>
<line y1="1199.5" x2="1920" y2="1199.5" stroke="#3C3C3C"/>
<line y1="1319.5" x2="1920" y2="1319.5" stroke="#3C3C3C"/>
<line y1="1439.5" x2="1920" y2="1439.5" stroke="#3C3C3C"/>
<line y1="1559.5" x2="1920" y2="1559.5" stroke="#3C3C3C"/>
<line y1="1679.5" x2="1920" y2="1679.5" stroke="#3C3C3C"/>
<line y1="1799.5" x2="1920" y2="1799.5" stroke="#3C3C3C"/>
<line y1="1919.5" x2="1920" y2="1919.5" stroke="#3C3C3C"/>
<line y1="2039.5" x2="1920" y2="2039.5" stroke="#3C3C3C"/>
<line y1="2159.5" x2="1920" y2="2159.5" stroke="#3C3C3C"/>
<line y1="2279.5" x2="1920" y2="2279.5" stroke="#3C3C3C"/>
<line y1="2399.5" x2="1920" y2="2399.5" stroke="#3C3C3C"/>
<line y1="2519.5" x2="1920" y2="2519.5" stroke="#3C3C3C"/>
<line y1="2639.5" x2="1920" y2="2639.5" stroke="#3C3C3C"/>
<line y1="2759.5" x2="1920" y2="2759.5" stroke="#3C3C3C"/>
<line y1="2879.5" x2="1920" y2="2879.5" stroke="#3C3C3C"/>
<line y1="2999.5" x2="1920" y2="2999.5" stroke="#3C3C3C"/>
<line y1="3119.5" x2="1920" y2="3119.5" stroke="#3C3C3C"/>
<line y1="3239.5" x2="1920" y2="3239.5" stroke="#3C3C3C"/>
<line y1="3359.5" x2="1920" y2="3359.5" stroke="#3C3C3C"/>
<line y1="3479.5" x2="1920" y2="3479.5" stroke="#3C3C3C"/>
<line y1="3599.5" x2="1920" y2="3599.5" stroke="#3C3C3C"/>
<line y1="3719.5" x2="1920" y2="3719.5" stroke="#3C3C3C"/>
<line y1="3839.5" x2="1920" y2="3839.5" stroke="#3C3C3C"/>
<line y1="3959.5" x2="1920" y2="3959.5" stroke="#3C3C3C"/>
<line y1="4079.5" x2="1920" y2="4079.5" stroke="#3C3C3C"/>
<line y1="4199.5" x2="1920" y2="4199.5" stroke="#3C3C3C"/>
<line y1="4319.5" x2="1920" y2="4319.5" stroke="#3C3C3C"/>
<line y1="4439.5" x2="1920" y2="4439.5" stroke="#3C3C3C"/>
<line y1="4559.5" x2="1920" y2="4559.5" stroke="#3C3C3C"/>
<line y1="4679.5" x2="1920" y2="4679.5" stroke="#3C3C3C"/>
<line y1="4799.5" x2="1920" y2="4799.5" stroke="#3C3C3C"/>
<line y1="4919.5" x2="1920" y2="4919.5" stroke="#3C3C3C"/>
<line y1="5039.5" x2="1920" y2="5039.5" stroke="#3C3C3C"/>
<line y1="5159.5" x2="1920" y2="5159.5" stroke="#3C3C3C"/>
<line y1="5279.5" x2="1920" y2="5279.5" stroke="#3C3C3C"/>
<line y1="5399.5" x2="1920" y2="5399.5" stroke="#3C3C3C"/>
<line y1="5519.5" x2="1920" y2="5519.5" stroke="#3C3C3C"/>
<line y1="5639.5" x2="1920" y2="5639.5" stroke="#3C3C3C"/>
<line y1="5759.5" x2="1920" y2="5759.5" stroke="#3C3C3C"/>
<line y1="5879.5" x2="1920" y2="5879.5" stroke="#3C3C3C"/>
<line y1="5999.5" x2="1920" y2="5999.5" stroke="#3C3C3C"/>
<line y1="6119.5" x2="1920" y2="6119.5" stroke="#3C3C3C"/>
<line y1="6239.5" x2="1920" y2="6239.5" stroke="#3C3C3C"/>
<line y1="6359.5" x2="1920" y2="6359.5" stroke="#3C3C3C"/>
</svg>
