<svg width="412" height="180" viewBox="0 0 412 180" fill="none" xmlns="http://www.w3.org/2000/svg">
<path d="M3.31509 0.5H407.756C409.311 0.5 410.571 1.76036 410.571 3.31509V178.515H0.5V3.31509C0.5 1.76036 1.76036 0.5 3.31509 0.5Z" fill="#292929" stroke="#292929"/>
<path d="M189.333 106.667H222.667C223.333 106.667 223.833 106.361 224.167 105.75C224.5 105.139 224.444 104.556 224 104L214.833 91.75C214.5 91.3056 214.056 91.0833 213.5 91.0833C212.944 91.0833 212.5 91.3056 212.167 91.75L203.5 103.333L197.333 95.0833C197 94.6389 196.556 94.4167 196 94.4167C195.444 94.4167 195 94.6389 194.667 95.0833L188 104C187.556 104.556 187.5 105.139 187.833 105.75C188.167 106.361 188.667 106.667 189.333 106.667ZM182.667 120C180.833 120 179.263 119.348 177.957 118.043C176.652 116.737 176 115.167 176 113.333V66.6667C176 64.8333 176.652 63.2633 177.957 61.9567C179.263 60.6522 180.833 60 182.667 60H229.333C231.167 60 232.737 60.6522 234.043 61.9567C235.348 63.2633 236 64.8333 236 66.6667V113.333C236 115.167 235.348 116.737 234.043 118.043C232.737 119.348 231.167 120 229.333 120H182.667Z" fill="#808080"/>
<line x1="15" y1="178.5" x2="396" y2="178.5" stroke="#808080" stroke-dasharray="8 8"/>
</svg>
