<svg width="800" height="800" viewBox="0 0 800 800" fill="none" xmlns="http://www.w3.org/2000/svg">
<path d="M647.902 198.025C600.877 253.875 540.677 297.15 472.027 323.25L469.077 324.225C476.577 339.525 483.752 355 490.327 370.65C492.827 376.275 495.002 381.9 497.202 387.2C520.377 384.65 547.277 383.2 574.502 383.2C626.077 383.2 676.427 388.4 725.077 398.325L720.252 397.5C719.752 321.5 692.577 251.975 647.652 197.65L648.077 198.175L647.902 198.025ZM325.027 89.2251C364.902 142.975 404.427 204.225 439.977 268L444.427 276.675C512.227 253.975 569.152 213.9 611.777 161.675L612.302 161.025C556.127 110.875 481.602 80.2251 399.952 80.2251C373.377 80.2251 347.552 83.4751 322.852 89.6001L325.052 89.1501L325.027 89.2251ZM86.5016 334.875C191.977 334.325 293.877 320.125 390.902 293.975L382.577 295.875C341.277 223.4 302.027 162.925 259.777 104.775L263.852 110.675C173.952 153.7 108.177 234.825 86.9266 332.55L86.5516 334.675L86.5016 334.875ZM162.102 614.625C222.602 517.575 312.352 443.65 418.877 404.425L422.402 403.3C426.627 401.9 430.827 400.675 435.052 399.55C426.927 381.275 418.177 363.1 409.052 345.2C311.852 374.05 200.177 390.675 84.6266 390.675C82.9766 390.675 81.3516 390.675 79.7266 390.675H79.9766L79.8516 400.425C79.8516 400.5 79.8516 400.575 79.8516 400.65C79.8516 483.075 111.102 558.2 162.377 614.85L162.127 614.575L162.102 614.625ZM525.127 695.225C508.077 602.75 484.377 521.3 453.552 443.475L456.702 452.5L454.652 453.125C346.802 486.775 259.002 557.925 204.602 651L203.477 653.075C257.102 695.275 325.602 720.75 400.052 720.75C445.177 720.75 488.102 711.4 527.002 694.525L524.927 695.325L525.127 695.225ZM716.152 451.3C676.877 439.45 631.752 432.625 585.027 432.625C560.927 432.625 537.252 434.45 514.127 437.95L516.727 437.625C541.227 501.725 562.777 578.35 577.627 657.35L578.977 665.95C650.827 616.95 701.302 541.125 716.027 453.2L716.277 451.325L716.152 451.3ZM400.002 774.9C192.952 774.9 25.1016 607.05 25.1016 400C25.1016 192.95 192.952 25.1001 400.002 25.1001C607.052 25.1001 774.902 192.95 774.902 400C774.627 606.925 606.927 774.6 400.002 774.9Z" fill="white"/>
</svg>
