<svg width="171" height="64" viewBox="0 0 171 64" fill="none" xmlns="http://www.w3.org/2000/svg">
<path d="M23.9037 31.8143C23.9037 36.1136 20.4644 39.553 16.1651 39.553C11.8659 39.553 8.4265 36.1136 8.4265 31.8143C8.4265 27.5151 11.8659 24.0757 16.1651 24.0757H23.9037V31.8143ZM32.5022 0H23.9037V15.6492C20.9803 15.6492 18.0568 15.6492 16.1651 15.6492C7.22272 15.6492 0 22.8719 0 31.8143C0 40.7568 7.22272 47.9795 16.1651 47.9795C25.1075 47.9795 32.3303 40.7568 32.3303 31.8143C32.3303 27.3431 32.3303 15.6492 32.3303 15.6492L32.5022 0Z" fill="white"/>
<path d="M117.978 39.5532C122.277 39.5532 125.716 36.1138 125.716 31.8145C125.716 27.5153 122.277 24.0759 117.978 24.0759C113.678 24.0759 110.239 27.5153 110.239 31.8145C110.411 36.1138 113.85 39.5532 117.978 39.5532ZM101.984 31.8145C101.984 22.8721 109.207 15.6494 118.15 15.6494C127.092 15.6494 134.315 22.8721 134.315 31.8145C134.315 40.757 127.092 47.9797 118.15 47.9797C109.207 47.9797 101.984 40.757 101.984 31.8145Z" fill="white"/>
<path d="M161.294 31.8145C161.294 27.6873 157.855 24.2479 153.728 24.2479C149.6 24.2479 146.161 27.6873 146.161 31.8145C146.161 33.8782 146.161 47.2918 146.161 47.2918C141.862 47.2918 137.734 47.2918 137.734 47.2918C137.734 47.2918 137.734 36.2857 137.734 31.8145C137.734 22.8721 144.957 15.6494 153.9 15.6494C162.842 15.6494 170.065 22.8721 170.065 31.8145C170.065 36.2857 170.065 47.2918 170.065 47.2918C170.065 47.2918 165.937 47.2918 161.638 47.2918C161.294 47.2918 161.294 33.8782 161.294 31.8145Z" fill="white"/>
<path d="M82.2083 26.3122C81.0045 25.4523 81.3485 24.0766 83.4121 23.5607C85.9916 22.8728 90.4629 23.3887 94.2462 25.1084L98.2015 19.6054C96.4818 18.2296 92.6985 16.338 87.1954 15.994C87.1954 15.994 77.9091 14.7902 74.1258 21.841C74.1258 21.841 70.8583 28.3758 77.3932 32.5031C81.3485 34.9107 88.2273 35.9425 90.4629 36.9743C92.1826 38.0061 91.6666 39.8978 89.0871 40.4137C84.6159 41.4455 78.7689 38.8659 76.8773 37.4902L72.75 43.1652C75.5015 45.2288 78.9409 47.1205 84.4439 47.9803C84.4439 47.9803 93.2144 49.5281 98.0295 43.5091C98.8894 42.4773 102.845 35.0826 94.9341 30.7834C90.8068 28.5478 84.272 27.516 82.2083 26.3122Z" fill="white"/>
<path d="M42.6594 53.4833C43.0033 53.6553 46.9586 56.4068 50.7419 56.4068C60.0283 56.5787 60.5442 46.9484 60.5442 44.7128C58.8245 46.6045 55.2131 47.8083 52.9775 47.8083C44.0351 47.8083 36.9844 40.9295 36.9844 31.9871C36.9844 27.5159 36.9844 16.3379 36.9844 16.3379C36.9844 16.3379 41.1116 16.3379 45.4109 16.3379C45.4109 16.3379 45.4109 30.0954 45.4109 31.9871C45.4109 36.1144 48.8503 39.5538 52.9775 39.5538C57.1048 39.5538 60.5442 36.1144 60.5442 31.9871C60.5442 30.2674 60.5442 16.3379 60.5442 16.3379C64.8434 16.3379 68.9707 16.3379 68.9707 16.3379V31.9871C68.9707 45.9166 69.6586 60.1901 56.073 63.4575C45.9268 65.8651 38.7041 59.5022 38.1882 59.1583L42.6594 53.4833Z" fill="white"/>
</svg>
