<svg width="800" height="800" viewBox="0 0 800 800" fill="none" xmlns="http://www.w3.org/2000/svg">
<path d="M323.302 511.475V288.55L519.277 400.025L323.302 511.475ZM759.202 218.375C750.352 185.85 725.352 160.7 693.577 151.8L692.902 151.65C613.077 141.5 520.752 135.7 427.052 135.7C417.527 135.7 408.027 135.75 398.552 135.875L400.002 135.85C391.952 135.75 382.477 135.675 372.952 135.675C279.252 135.675 186.877 141.475 96.2016 152.7L107.052 151.6C74.6266 160.675 49.6266 185.8 40.9516 217.675L40.8016 218.325C30.8016 271.05 25.1016 331.725 25.1016 393.725C25.1016 395.925 25.1016 398.125 25.1266 400.3V399.95C25.1266 401.8 25.1016 404 25.1016 406.2C25.1016 468.2 30.8266 528.85 41.7516 587.675L40.8016 581.575C49.6516 614.1 74.6516 639.25 106.427 648.15L107.102 648.3C186.927 658.45 279.252 664.25 372.952 664.25C382.452 664.25 391.952 664.2 401.452 664.075L400.002 664.1C408.052 664.2 417.552 664.275 427.052 664.275C520.777 664.275 613.127 658.475 703.802 647.25L692.952 648.35C725.402 639.3 750.402 614.15 759.102 582.275L759.252 581.625C769.227 528.9 774.927 468.225 774.927 406.25C774.927 404.05 774.927 401.85 774.902 399.675V400C774.902 398.15 774.927 395.95 774.927 393.75C774.927 331.75 769.202 271.1 758.277 212.275L759.202 218.375Z" fill="white"/>
</svg>
