<svg width="1280" height="832" viewBox="0 0 1280 832" fill="none" xmlns="http://www.w3.org/2000/svg">
<rect x="0.5" y="0.5" width="1279" height="831" fill="white"/>
<path d="M322.072 190.64H313.648V194H318.136C317.536 195.608 316.072 196.592 313.84 196.592C310.576 196.592 308.56 194.504 308.56 191.648C308.56 188.696 310.672 186.608 313.504 186.608C315.4 186.608 316.912 187.472 317.608 188.576L320.872 186.704C319.456 184.448 316.744 182.864 313.528 182.864C308.584 182.864 304.72 186.752 304.72 191.624C304.72 196.448 308.512 200.336 313.792 200.336C318.496 200.336 322.072 197.216 322.072 192.08V190.64ZM325.917 186.944C327.093 186.944 328.077 185.96 328.077 184.784C328.077 183.608 327.093 182.624 325.917 182.624C324.741 182.624 323.757 183.608 323.757 184.784C323.757 185.96 324.741 186.944 325.917 186.944ZM324.117 200H327.717V188H324.117V200ZM330.351 200H333.951V182.48H330.351V200ZM340.186 190.136V188H336.586V200H340.186V194.576C340.186 192.2 342.298 191.6 343.786 191.84V187.76C342.274 187.76 340.666 188.528 340.186 190.136ZM350.877 200.336C354.405 200.336 357.237 197.576 357.237 194C357.237 190.424 354.405 187.664 350.877 187.664C347.349 187.664 344.517 190.424 344.517 194C344.517 197.576 347.349 200.336 350.877 200.336ZM350.877 196.832C349.317 196.832 348.117 195.704 348.117 194C348.117 192.296 349.317 191.168 350.877 191.168C352.437 191.168 353.637 192.296 353.637 194C353.637 195.704 352.437 196.832 350.877 196.832ZM366.364 188L364.108 195.344L361.444 188H357.484L362.26 199.448C361.732 200.912 360.94 201.44 359.26 201.44V204.8C362.62 204.968 364.756 203.456 366.1 199.64L370.204 188H366.364ZM381.491 196.304V193.328H387.491V189.68H381.491V186.896H388.091V183.2H377.651V200H388.211V196.304H381.491ZM401.658 200L397.362 193.904L401.514 188H397.386L395.298 190.976L393.21 188H389.082L393.234 193.904L388.938 200H393.066L395.298 196.832L397.53 200H401.658ZM410.016 191.456V188H407.544V184.64L403.944 185.72V188H402.024V191.456H403.944V195.704C403.944 199.064 405.312 200.48 410.016 200V196.736C408.432 196.832 407.544 196.736 407.544 195.704V191.456H410.016ZM415.889 190.136V188H412.289V200H415.889V194.576C415.889 192.2 418.001 191.6 419.489 191.84V187.76C417.977 187.76 416.369 188.528 415.889 190.136ZM429.532 188V189.128C428.74 188.216 427.564 187.664 425.956 187.664C422.812 187.664 420.22 190.424 420.22 194C420.22 197.576 422.812 200.336 425.956 200.336C427.564 200.336 428.74 199.784 429.532 198.872V200H433.132V188H429.532ZM426.676 196.928C425.02 196.928 423.82 195.8 423.82 194C423.82 192.2 425.02 191.072 426.676 191.072C428.332 191.072 429.532 192.2 429.532 194C429.532 195.8 428.332 196.928 426.676 196.928ZM442.949 187.664C441.341 187.664 440.165 188.216 439.373 189.128V183.2H435.773V200H439.373V198.872C440.165 199.784 441.341 200.336 442.949 200.336C446.093 200.336 448.685 197.576 448.685 194C448.685 190.424 446.093 187.664 442.949 187.664ZM442.229 196.928C440.573 196.928 439.373 195.8 439.373 194C439.373 192.2 440.573 191.072 442.229 191.072C443.885 191.072 445.085 192.2 445.085 194C445.085 195.8 443.885 196.928 442.229 196.928ZM456.486 200.336C460.014 200.336 462.846 197.576 462.846 194C462.846 190.424 460.014 187.664 456.486 187.664C452.958 187.664 450.126 190.424 450.126 194C450.126 197.576 452.958 200.336 456.486 200.336ZM456.486 196.832C454.926 196.832 453.726 195.704 453.726 194C453.726 192.296 454.926 191.168 456.486 191.168C458.046 191.168 459.246 192.296 459.246 194C459.246 195.704 458.046 196.832 456.486 196.832ZM464.883 200H468.483V182.48H464.883V200ZM479.829 183.2V189.128C479.037 188.216 477.861 187.664 476.253 187.664C473.109 187.664 470.517 190.424 470.517 194C470.517 197.576 473.109 200.336 476.253 200.336C477.861 200.336 479.037 199.784 479.829 198.872V200H483.429V183.2H479.829ZM476.973 196.928C475.317 196.928 474.117 195.8 474.117 194C474.117 192.2 475.317 191.072 476.973 191.072C478.629 191.072 479.829 192.2 479.829 194C479.829 195.8 478.629 196.928 476.973 196.928Z" fill="#121212"/>
<path d="M85.2 74H64.4V80.16H71.6V102H78V80.16H85.2V74ZM97.5891 82L93.8291 94.24L89.3891 82H82.7891L90.7491 101.08C89.8691 103.52 88.5491 104.4 85.7491 104.4V110C91.3491 110.28 94.9091 107.76 97.1491 101.4L103.989 82H97.5891ZM118.16 81.44C115.48 81.44 113.52 82.36 112.2 83.88V82H106.2V110H112.2V100.12C113.52 101.64 115.48 102.56 118.16 102.56C123.4 102.56 127.72 97.96 127.72 92C127.72 86.04 123.4 81.44 118.16 81.44ZM116.96 96.88C114.2 96.88 112.2 95 112.2 92C112.2 89 114.2 87.12 116.96 87.12C119.72 87.12 121.72 89 121.72 92C121.72 95 119.72 96.88 116.96 96.88ZM140.722 102.56C146.602 102.56 151.322 97.96 151.322 92C151.322 86.04 146.602 81.44 140.722 81.44C134.842 81.44 130.122 86.04 130.122 92C130.122 97.96 134.842 102.56 140.722 102.56ZM140.722 96.72C138.122 96.72 136.122 94.84 136.122 92C136.122 89.16 138.122 87.28 140.722 87.28C143.322 87.28 145.322 89.16 145.322 92C145.322 94.84 143.322 96.72 140.722 96.72ZM169.396 82V84.04C168.076 82.4 166.156 81.44 163.556 81.44C157.876 81.44 153.716 86.08 153.716 91.6C153.716 97.12 157.876 101.76 163.556 101.76C166.156 101.76 168.076 100.8 169.396 99.16V101C169.396 103.84 167.676 105.28 164.876 105.28C162.236 105.28 161.076 104.16 160.316 102.76L155.196 105.72C157.036 109 160.516 110.56 164.676 110.56C169.996 110.56 175.236 107.72 175.236 101V82H169.396ZM164.556 96.24C161.716 96.24 159.716 94.36 159.716 91.6C159.716 88.84 161.716 86.96 164.556 86.96C167.396 86.96 169.396 88.84 169.396 91.6C169.396 94.36 167.396 96.24 164.556 96.24ZM185.638 85.56V82H179.638V102H185.638V92.96C185.638 89 189.158 88 191.638 88.4V81.6C189.118 81.6 186.438 82.88 185.638 85.56ZM208.376 82V83.88C207.056 82.36 205.096 81.44 202.416 81.44C197.176 81.44 192.856 86.04 192.856 92C192.856 97.96 197.176 102.56 202.416 102.56C205.096 102.56 207.056 101.64 208.376 100.12V102H214.376V82H208.376ZM203.616 96.88C200.856 96.88 198.856 95 198.856 92C198.856 89 200.856 87.12 203.616 87.12C206.376 87.12 208.376 89 208.376 92C208.376 95 206.376 96.88 203.616 96.88ZM230.738 81.44C228.058 81.44 226.098 82.36 224.778 83.88V82H218.778V110H224.778V100.12C226.098 101.64 228.058 102.56 230.738 102.56C235.978 102.56 240.298 97.96 240.298 92C240.298 86.04 235.978 81.44 230.738 81.44ZM229.538 96.88C226.778 96.88 224.778 95 224.778 92C224.778 89 226.778 87.12 229.538 87.12C232.298 87.12 234.298 89 234.298 92C234.298 95 232.298 96.88 229.538 96.88ZM255.42 81.44C252.78 81.44 250.78 82.4 249.7 83.88V74H243.7V102H249.7V91.08C249.7 88.24 251.22 86.96 253.42 86.96C255.34 86.96 256.9 88.12 256.9 90.6V102H262.9V89.72C262.9 84.32 259.46 81.44 255.42 81.44ZM279.23 82L275.47 94.24L271.03 82H264.43L272.39 101.08C271.51 103.52 270.19 104.4 267.39 104.4V110C272.99 110.28 276.55 107.76 278.79 101.4L285.63 82H279.23Z" fill="#121212"/>
<path d="M79.76 380.56C84.88 380.56 89.36 378.04 91.76 374.08L86.24 370.88C85.04 373.04 82.6 374.32 79.76 374.32C74.8 374.32 71.6 371 71.6 366C71.6 361 74.8 357.68 79.76 357.68C82.6 357.68 85 358.96 86.24 361.12L91.76 357.92C89.32 353.96 84.84 351.44 79.76 351.44C71.32 351.44 65.2 357.76 65.2 366C65.2 374.24 71.32 380.56 79.76 380.56ZM104.355 380.56C110.235 380.56 114.955 375.96 114.955 370C114.955 364.04 110.235 359.44 104.355 359.44C98.4747 359.44 93.7547 364.04 93.7547 370C93.7547 375.96 98.4747 380.56 104.355 380.56ZM104.355 374.72C101.755 374.72 99.7547 372.84 99.7547 370C99.7547 367.16 101.755 365.28 104.355 365.28C106.955 365.28 108.955 367.16 108.955 370C108.955 372.84 106.955 374.72 104.355 374.72ZM118.348 380H124.348V350.8H118.348V380ZM138.339 380.56C144.219 380.56 148.939 375.96 148.939 370C148.939 364.04 144.219 359.44 138.339 359.44C132.459 359.44 127.739 364.04 127.739 370C127.739 375.96 132.459 380.56 138.339 380.56ZM138.339 374.72C135.739 374.72 133.739 372.84 133.739 370C133.739 367.16 135.739 365.28 138.339 365.28C140.939 365.28 142.939 367.16 142.939 370C142.939 372.84 140.939 374.72 138.339 374.72ZM158.333 363.56V360H152.333V380H158.333V370.96C158.333 367 161.853 366 164.333 366.4V359.6C161.813 359.6 159.133 360.88 158.333 363.56ZM172.232 365.84C172.232 365.12 172.872 364.72 173.912 364.72C175.232 364.72 176.032 365.44 176.592 366.48L181.712 363.72C180.032 360.88 177.152 359.44 173.912 359.44C169.752 359.44 166.072 361.64 166.072 366C166.072 372.92 175.912 371.76 175.912 373.96C175.912 374.76 175.192 375.2 173.752 375.2C171.992 375.2 170.872 374.36 170.352 372.84L165.152 375.8C166.712 379.04 169.752 380.56 173.752 380.56C178.072 380.56 182.072 378.6 182.072 374C182.072 366.6 172.232 368.12 172.232 365.84Z" fill="#121212"/>
<path d="M207.8 461.2H201.44V478H205.28V472.72H207.8C211.112 472.72 213.68 470.152 213.68 466.96C213.68 463.768 211.112 461.2 207.8 461.2ZM207.8 469.12H205.28V464.8H207.8C208.976 464.8 209.84 465.736 209.84 466.96C209.84 468.184 208.976 469.12 207.8 469.12ZM218.842 468.136V466H215.242V478H218.842V472.576C218.842 470.2 220.954 469.6 222.442 469.84V465.76C220.93 465.76 219.322 466.528 218.842 468.136ZM225.925 464.944C227.101 464.944 228.085 463.96 228.085 462.784C228.085 461.608 227.101 460.624 225.925 460.624C224.749 460.624 223.765 461.608 223.765 462.784C223.765 463.96 224.749 464.944 225.925 464.944ZM224.125 478H227.725V466H224.125V478ZM243.799 465.664C242.095 465.664 240.991 466.288 240.319 467.248C239.647 466.24 238.591 465.664 237.175 465.664C235.567 465.664 234.511 466.288 233.959 467.104V466H230.359V478H233.959V471.232C233.959 469.816 234.631 468.976 235.831 468.976C236.983 468.976 237.559 469.744 237.559 470.944V478H241.159V471.232C241.159 469.816 241.831 468.976 243.031 468.976C244.183 468.976 244.759 469.744 244.759 470.944V478H248.359V470.632C248.359 467.632 246.559 465.664 243.799 465.664ZM259.532 466V467.128C258.74 466.216 257.564 465.664 255.956 465.664C252.812 465.664 250.22 468.424 250.22 472C250.22 475.576 252.812 478.336 255.956 478.336C257.564 478.336 258.74 477.784 259.532 476.872V478H263.132V466H259.532ZM256.676 474.928C255.02 474.928 253.82 473.8 253.82 472C253.82 470.2 255.02 469.072 256.676 469.072C258.332 469.072 259.532 470.2 259.532 472C259.532 473.8 258.332 474.928 256.676 474.928ZM269.373 468.136V466H265.773V478H269.373V472.576C269.373 470.2 271.485 469.6 272.973 469.84V465.76C271.461 465.76 269.853 466.528 269.373 468.136ZM282.45 466L280.194 473.344L277.53 466H273.57L278.346 477.448C277.818 478.912 277.026 479.44 275.346 479.44V482.8C278.706 482.968 280.842 481.456 282.186 477.64L286.29 466H282.45Z" fill="#121212"/>
<path d="M781.8 461.2H775.44V478H779.28V472.72H781.8C785.112 472.72 787.68 470.152 787.68 466.96C787.68 463.768 785.112 461.2 781.8 461.2ZM781.8 469.12H779.28V464.8H781.8C782.976 464.8 783.84 465.736 783.84 466.96C783.84 468.184 782.976 469.12 781.8 469.12ZM792.842 468.136V466H789.242V478H792.842V472.576C792.842 470.2 794.954 469.6 796.442 469.84V465.76C794.93 465.76 793.322 466.528 792.842 468.136ZM799.925 464.944C801.101 464.944 802.085 463.96 802.085 462.784C802.085 461.608 801.101 460.624 799.925 460.624C798.749 460.624 797.765 461.608 797.765 462.784C797.765 463.96 798.749 464.944 799.925 464.944ZM798.125 478H801.725V466H798.125V478ZM817.799 465.664C816.095 465.664 814.991 466.288 814.319 467.248C813.647 466.24 812.591 465.664 811.175 465.664C809.567 465.664 808.511 466.288 807.959 467.104V466H804.359V478H807.959V471.232C807.959 469.816 808.631 468.976 809.831 468.976C810.983 468.976 811.559 469.744 811.559 470.944V478H815.159V471.232C815.159 469.816 815.831 468.976 817.031 468.976C818.183 468.976 818.759 469.744 818.759 470.944V478H822.359V470.632C822.359 467.632 820.559 465.664 817.799 465.664ZM833.532 466V467.128C832.74 466.216 831.564 465.664 829.956 465.664C826.812 465.664 824.22 468.424 824.22 472C824.22 475.576 826.812 478.336 829.956 478.336C831.564 478.336 832.74 477.784 833.532 476.872V478H837.132V466H833.532ZM830.676 474.928C829.02 474.928 827.82 473.8 827.82 472C827.82 470.2 829.02 469.072 830.676 469.072C832.332 469.072 833.532 470.2 833.532 472C833.532 473.8 832.332 474.928 830.676 474.928ZM843.373 468.136V466H839.773V478H843.373V472.576C843.373 470.2 845.485 469.6 846.973 469.84V465.76C845.461 465.76 843.853 466.528 843.373 468.136ZM856.45 466L854.194 473.344L851.53 466H847.57L852.346 477.448C851.818 478.912 851.026 479.44 849.346 479.44V482.8C852.706 482.968 854.842 481.456 856.186 477.64L860.29 466H856.45ZM879.017 461.2H866.537V464.896H870.857V478H874.697V464.896H879.017V461.2ZM881.638 473.44H890.158C890.254 472.984 890.302 472.504 890.302 472C890.302 468.376 887.71 465.664 884.206 465.664C880.414 465.664 877.822 468.424 877.822 472C877.822 475.576 880.366 478.336 884.47 478.336C886.75 478.336 888.526 477.496 889.702 475.864L886.822 474.208C886.342 474.736 885.502 475.12 884.518 475.12C883.198 475.12 882.094 474.688 881.638 473.44ZM881.566 470.752C881.902 469.528 882.814 468.856 884.182 468.856C885.262 468.856 886.342 469.36 886.726 470.752H881.566ZM903.017 478L898.721 471.904L902.873 466H898.745L896.657 468.976L894.569 466H890.441L894.593 471.904L890.297 478H894.425L896.657 474.832L898.889 478H903.017ZM911.375 469.456V466H908.903V462.64L905.303 463.72V466H903.383V469.456H905.303V473.704C905.303 477.064 906.671 478.48 911.375 478V474.736C909.791 474.832 908.903 474.736 908.903 473.704V469.456H911.375Z" fill="#121212"/>
<path d="M207.32 614.336C210.968 614.336 213.56 612.416 213.56 609.176C213.56 605.624 210.704 604.736 208.16 603.968C205.544 603.176 205.136 602.648 205.136 601.88C205.136 601.208 205.736 600.608 206.936 600.608C208.472 600.608 209.264 601.352 209.84 602.552L213.08 600.656C211.856 598.184 209.696 596.864 206.936 596.864C204.032 596.864 201.296 598.736 201.296 601.976C201.296 605.192 203.744 606.392 206.24 607.088C208.76 607.784 209.72 608.192 209.72 609.224C209.72 609.872 209.264 610.592 207.44 610.592C205.544 610.592 204.512 609.656 203.912 608.264L200.6 610.184C201.536 612.656 203.792 614.336 207.32 614.336ZM218.927 609.44H227.447C227.543 608.984 227.591 608.504 227.591 608C227.591 604.376 224.999 601.664 221.495 601.664C217.703 601.664 215.111 604.424 215.111 608C215.111 611.576 217.655 614.336 221.759 614.336C224.039 614.336 225.815 613.496 226.991 611.864L224.111 610.208C223.631 610.736 222.791 611.12 221.807 611.12C220.487 611.12 219.383 610.688 218.927 609.44ZM218.855 606.752C219.191 605.528 220.103 604.856 221.471 604.856C222.551 604.856 223.631 605.36 224.015 606.752H218.855ZM235.275 614.336C237.627 614.336 239.667 613.112 240.699 611.24L237.555 609.44C237.171 610.28 236.283 610.784 235.227 610.784C233.667 610.784 232.515 609.656 232.515 608C232.515 606.344 233.667 605.216 235.227 605.216C236.283 605.216 237.147 605.72 237.555 606.56L240.699 604.736C239.667 602.888 237.603 601.664 235.275 601.664C231.627 601.664 228.915 604.424 228.915 608C228.915 611.576 231.627 614.336 235.275 614.336ZM247.674 614.336C251.202 614.336 254.034 611.576 254.034 608C254.034 604.424 251.202 601.664 247.674 601.664C244.146 601.664 241.314 604.424 241.314 608C241.314 611.576 244.146 614.336 247.674 614.336ZM247.674 610.832C246.114 610.832 244.914 609.704 244.914 608C244.914 606.296 246.114 605.168 247.674 605.168C249.234 605.168 250.434 606.296 250.434 608C250.434 609.704 249.234 610.832 247.674 610.832ZM263.102 601.664C261.518 601.664 260.318 602.24 259.67 603.128V602H256.07V614H259.67V607.448C259.67 605.744 260.582 604.976 261.902 604.976C263.054 604.976 263.99 605.672 263.99 607.16V614H267.59V606.632C267.59 603.392 265.526 601.664 263.102 601.664ZM278.774 597.2V603.128C277.982 602.216 276.806 601.664 275.198 601.664C272.054 601.664 269.462 604.424 269.462 608C269.462 611.576 272.054 614.336 275.198 614.336C276.806 614.336 277.982 613.784 278.774 612.872V614H282.374V597.2H278.774ZM275.918 610.928C274.262 610.928 273.062 609.8 273.062 608C273.062 606.2 274.262 605.072 275.918 605.072C277.574 605.072 278.774 606.2 278.774 608C278.774 609.8 277.574 610.928 275.918 610.928ZM293.727 602V603.128C292.935 602.216 291.759 601.664 290.151 601.664C287.007 601.664 284.415 604.424 284.415 608C284.415 611.576 287.007 614.336 290.151 614.336C291.759 614.336 292.935 613.784 293.727 612.872V614H297.327V602H293.727ZM290.871 610.928C289.215 610.928 288.015 609.8 288.015 608C288.015 606.2 289.215 605.072 290.871 605.072C292.527 605.072 293.727 606.2 293.727 608C293.727 609.8 292.527 610.928 290.871 610.928ZM303.568 604.136V602H299.968V614H303.568V608.576C303.568 606.2 305.68 605.6 307.168 605.84V601.76C305.656 601.76 304.048 602.528 303.568 604.136ZM316.646 602L314.39 609.344L311.726 602H307.766L312.542 613.448C312.014 614.912 311.222 615.44 309.542 615.44V618.8C312.902 618.968 315.038 617.456 316.382 613.64L320.486 602H316.646Z" fill="#121212"/>
<path d="M781.32 614.336C784.968 614.336 787.56 612.416 787.56 609.176C787.56 605.624 784.704 604.736 782.16 603.968C779.544 603.176 779.136 602.648 779.136 601.88C779.136 601.208 779.736 600.608 780.936 600.608C782.472 600.608 783.264 601.352 783.84 602.552L787.08 600.656C785.856 598.184 783.696 596.864 780.936 596.864C778.032 596.864 775.296 598.736 775.296 601.976C775.296 605.192 777.744 606.392 780.24 607.088C782.76 607.784 783.72 608.192 783.72 609.224C783.72 609.872 783.264 610.592 781.44 610.592C779.544 610.592 778.512 609.656 777.912 608.264L774.6 610.184C775.536 612.656 777.792 614.336 781.32 614.336ZM792.927 609.44H801.447C801.543 608.984 801.591 608.504 801.591 608C801.591 604.376 798.999 601.664 795.495 601.664C791.703 601.664 789.111 604.424 789.111 608C789.111 611.576 791.655 614.336 795.759 614.336C798.039 614.336 799.815 613.496 800.991 611.864L798.111 610.208C797.631 610.736 796.791 611.12 795.807 611.12C794.487 611.12 793.383 610.688 792.927 609.44ZM792.855 606.752C793.191 605.528 794.103 604.856 795.471 604.856C796.551 604.856 797.631 605.36 798.015 606.752H792.855ZM809.275 614.336C811.627 614.336 813.667 613.112 814.699 611.24L811.555 609.44C811.171 610.28 810.283 610.784 809.227 610.784C807.667 610.784 806.515 609.656 806.515 608C806.515 606.344 807.667 605.216 809.227 605.216C810.283 605.216 811.147 605.72 811.555 606.56L814.699 604.736C813.667 602.888 811.603 601.664 809.275 601.664C805.627 601.664 802.915 604.424 802.915 608C802.915 611.576 805.627 614.336 809.275 614.336ZM821.674 614.336C825.202 614.336 828.034 611.576 828.034 608C828.034 604.424 825.202 601.664 821.674 601.664C818.146 601.664 815.314 604.424 815.314 608C815.314 611.576 818.146 614.336 821.674 614.336ZM821.674 610.832C820.114 610.832 818.914 609.704 818.914 608C818.914 606.296 820.114 605.168 821.674 605.168C823.234 605.168 824.434 606.296 824.434 608C824.434 609.704 823.234 610.832 821.674 610.832ZM837.102 601.664C835.518 601.664 834.318 602.24 833.67 603.128V602H830.07V614H833.67V607.448C833.67 605.744 834.582 604.976 835.902 604.976C837.054 604.976 837.99 605.672 837.99 607.16V614H841.59V606.632C841.59 603.392 839.526 601.664 837.102 601.664ZM852.774 597.2V603.128C851.982 602.216 850.806 601.664 849.198 601.664C846.054 601.664 843.462 604.424 843.462 608C843.462 611.576 846.054 614.336 849.198 614.336C850.806 614.336 851.982 613.784 852.774 612.872V614H856.374V597.2H852.774ZM849.918 610.928C848.262 610.928 847.062 609.8 847.062 608C847.062 606.2 848.262 605.072 849.918 605.072C851.574 605.072 852.774 606.2 852.774 608C852.774 609.8 851.574 610.928 849.918 610.928ZM867.727 602V603.128C866.935 602.216 865.759 601.664 864.151 601.664C861.007 601.664 858.415 604.424 858.415 608C858.415 611.576 861.007 614.336 864.151 614.336C865.759 614.336 866.935 613.784 867.727 612.872V614H871.327V602H867.727ZM864.871 610.928C863.215 610.928 862.015 609.8 862.015 608C862.015 606.2 863.215 605.072 864.871 605.072C866.527 605.072 867.727 606.2 867.727 608C867.727 609.8 866.527 610.928 864.871 610.928ZM877.568 604.136V602H873.968V614H877.568V608.576C877.568 606.2 879.68 605.6 881.168 605.84V601.76C879.656 601.76 878.048 602.528 877.568 604.136ZM890.646 602L888.39 609.344L885.726 602H881.766L886.542 613.448C886.014 614.912 885.222 615.44 883.542 615.44V618.8C886.902 618.968 889.038 617.456 890.382 613.64L894.486 602H890.646ZM913.212 597.2H900.732V600.896H905.052V614H908.892V600.896H913.212V597.2ZM915.833 609.44H924.353C924.449 608.984 924.497 608.504 924.497 608C924.497 604.376 921.905 601.664 918.401 601.664C914.609 601.664 912.017 604.424 912.017 608C912.017 611.576 914.561 614.336 918.665 614.336C920.945 614.336 922.721 613.496 923.897 611.864L921.017 610.208C920.537 610.736 919.697 611.12 918.713 611.12C917.393 611.12 916.289 610.688 915.833 609.44ZM915.761 606.752C916.097 605.528 917.009 604.856 918.377 604.856C919.457 604.856 920.537 605.36 920.921 606.752H915.761ZM937.212 614L932.916 607.904L937.068 602H932.94L930.852 604.976L928.764 602H924.636L928.788 607.904L924.492 614H928.62L930.852 610.832L933.084 614H937.212ZM945.571 605.456V602H943.099V598.64L939.499 599.72V602H937.579V605.456H939.499V609.704C939.499 613.064 940.867 614.48 945.571 614V610.736C943.987 610.832 943.099 610.736 943.099 609.704V605.456H945.571Z" fill="#121212"/>
<path d="M1130.8 461.2H1124.44V478H1128.28V472.72H1130.8C1134.11 472.72 1136.68 470.152 1136.68 466.96C1136.68 463.768 1134.11 461.2 1130.8 461.2ZM1130.8 469.12H1128.28V464.8H1130.8C1131.98 464.8 1132.84 465.736 1132.84 466.96C1132.84 468.184 1131.98 469.12 1130.8 469.12ZM1146.46 466V467.128C1145.67 466.216 1144.49 465.664 1142.89 465.664C1139.74 465.664 1137.15 468.424 1137.15 472C1137.15 475.576 1139.74 478.336 1142.89 478.336C1144.49 478.336 1145.67 477.784 1146.46 476.872V478H1150.06V466H1146.46ZM1143.61 474.928C1141.95 474.928 1140.75 473.8 1140.75 472C1140.75 470.2 1141.95 469.072 1143.61 469.072C1145.26 469.072 1146.46 470.2 1146.46 472C1146.46 473.8 1145.26 474.928 1143.61 474.928ZM1156.3 468.136V466H1152.7V478H1156.3V472.576C1156.3 470.2 1158.41 469.6 1159.9 469.84V465.76C1158.39 465.76 1156.78 466.528 1156.3 468.136ZM1169.95 466V467.128C1169.15 466.216 1167.98 465.664 1166.37 465.664C1163.23 465.664 1160.63 468.424 1160.63 472C1160.63 475.576 1163.23 478.336 1166.37 478.336C1167.98 478.336 1169.15 477.784 1169.95 476.872V478H1173.55V466H1169.95ZM1167.09 474.928C1165.43 474.928 1164.23 473.8 1164.23 472C1164.23 470.2 1165.43 469.072 1167.09 469.072C1168.75 469.072 1169.95 470.2 1169.95 472C1169.95 473.8 1168.75 474.928 1167.09 474.928ZM1185 466V467.224C1184.2 466.24 1183.05 465.664 1181.49 465.664C1178.08 465.664 1175.59 468.448 1175.59 471.76C1175.59 475.072 1178.08 477.856 1181.49 477.856C1183.05 477.856 1184.2 477.28 1185 476.296V477.4C1185 479.104 1183.96 479.968 1182.28 479.968C1180.7 479.968 1180 479.296 1179.55 478.456L1176.48 480.232C1177.58 482.2 1179.67 483.136 1182.16 483.136C1185.36 483.136 1188.5 481.432 1188.5 477.4V466H1185ZM1182.09 474.544C1180.39 474.544 1179.19 473.416 1179.19 471.76C1179.19 470.104 1180.39 468.976 1182.09 468.976C1183.8 468.976 1185 470.104 1185 471.76C1185 473.416 1183.8 474.544 1182.09 474.544ZM1194.74 468.136V466H1191.14V478H1194.74V472.576C1194.74 470.2 1196.85 469.6 1198.34 469.84V465.76C1196.83 465.76 1195.22 466.528 1194.74 468.136ZM1208.38 466V467.128C1207.59 466.216 1206.42 465.664 1204.81 465.664C1201.66 465.664 1199.07 468.424 1199.07 472C1199.07 475.576 1201.66 478.336 1204.81 478.336C1206.42 478.336 1207.59 477.784 1208.38 476.872V478H1211.98V466H1208.38ZM1205.53 474.928C1203.87 474.928 1202.67 473.8 1202.67 472C1202.67 470.2 1203.87 469.072 1205.53 469.072C1207.18 469.072 1208.38 470.2 1208.38 472C1208.38 473.8 1207.18 474.928 1205.53 474.928ZM1221.8 465.664C1220.19 465.664 1219.02 466.216 1218.22 467.128V466H1214.62V482.8H1218.22V476.872C1219.02 477.784 1220.19 478.336 1221.8 478.336C1224.94 478.336 1227.54 475.576 1227.54 472C1227.54 468.424 1224.94 465.664 1221.8 465.664ZM1221.08 474.928C1219.42 474.928 1218.22 473.8 1218.22 472C1218.22 470.2 1219.42 469.072 1221.08 469.072C1222.74 469.072 1223.94 470.2 1223.94 472C1223.94 473.8 1222.74 474.928 1221.08 474.928ZM1236.61 465.664C1235.03 465.664 1233.83 466.24 1233.18 467.128V461.2H1229.58V478H1233.18V471.448C1233.18 469.744 1234.09 468.976 1235.41 468.976C1236.56 468.976 1237.5 469.672 1237.5 471.16V478H1241.1V470.632C1241.1 467.392 1239.03 465.664 1236.61 465.664ZM1135.72 490.2H1123.24V493.896H1127.56V507H1131.4V493.896H1135.72V490.2ZM1138.34 502.44H1146.86C1146.96 501.984 1147 501.504 1147 501C1147 497.376 1144.41 494.664 1140.91 494.664C1137.12 494.664 1134.52 497.424 1134.52 501C1134.52 504.576 1137.07 507.336 1141.17 507.336C1143.45 507.336 1145.23 506.496 1146.4 504.864L1143.52 503.208C1143.04 503.736 1142.2 504.12 1141.22 504.12C1139.9 504.12 1138.8 503.688 1138.34 502.44ZM1138.27 499.752C1138.6 498.528 1139.52 497.856 1140.88 497.856C1141.96 497.856 1143.04 498.36 1143.43 499.752H1138.27ZM1159.72 507L1155.42 500.904L1159.58 495H1155.45L1153.36 497.976L1151.27 495H1147.14L1151.3 500.904L1147 507H1151.13L1153.36 503.832L1155.59 507H1159.72ZM1168.08 498.456V495H1165.61V491.64L1162.01 492.72V495H1160.09V498.456H1162.01V502.704C1162.01 506.064 1163.37 507.48 1168.08 507V503.736C1166.49 503.832 1165.61 503.736 1165.61 502.704V498.456H1168.08Z" fill="#121212"/>
<path d="M204.867 643H205.984L206.625 639.852H208.672L208.891 638.727H206.852L207.438 635.883H209.398L209.617 634.766H207.672L208.297 631.727H207.18L206.547 634.766H204L204.609 631.727H203.5L202.867 634.766H200.938L200.711 635.883H202.641L202.07 638.727H200.219L200 639.852H201.828L201.195 643H202.305L202.945 639.852H205.508L204.867 643ZM203.164 638.75L203.75 635.867H206.328L205.742 638.75H203.164ZM210.719 631.727V643H214.508C217.859 643 219.828 640.914 219.828 637.359C219.828 633.812 217.852 631.727 214.508 631.727H210.719ZM212.125 632.992H214.414C216.977 632.992 218.391 634.555 218.391 637.375C218.391 640.172 216.969 641.734 214.414 641.734H212.125V632.992ZM224.984 643.188C227.742 643.188 229.352 640.969 229.352 637.172C229.352 635.945 229.172 634.93 228.797 634.062C228.109 632.445 226.766 631.531 225.07 631.531C222.758 631.531 221.078 633.156 221.078 635.383C221.078 637.523 222.672 639.109 224.82 639.109C226.258 639.109 227.492 638.383 227.969 637.266C227.977 637.266 227.977 637.266 227.984 637.266H227.992C227.953 640.258 226.875 641.961 225 641.961C223.883 641.961 222.969 641.289 222.672 640.266H221.242C221.586 642.031 223.062 643.188 224.984 643.188ZM225.062 637.875C223.586 637.875 222.5 636.805 222.5 635.336C222.5 633.922 223.641 632.797 225.086 632.797C226.539 632.797 227.664 633.93 227.664 635.375C227.664 636.812 226.555 637.875 225.062 637.875ZM231.156 631.727V643H234.945C238.297 643 240.266 640.914 240.266 637.359C240.266 633.812 238.289 631.727 234.945 631.727H231.156ZM232.562 632.992H234.852C237.414 632.992 238.828 634.555 238.828 637.375C238.828 640.172 237.406 641.734 234.852 641.734H232.562V632.992ZM245.422 643.188C248.18 643.188 249.789 640.969 249.789 637.172C249.789 635.945 249.609 634.93 249.234 634.062C248.547 632.445 247.203 631.531 245.508 631.531C243.195 631.531 241.516 633.156 241.516 635.383C241.516 637.523 243.109 639.109 245.258 639.109C246.695 639.109 247.93 638.383 248.406 637.266C248.414 637.266 248.414 637.266 248.422 637.266H248.43C248.391 640.258 247.312 641.961 245.438 641.961C244.32 641.961 243.406 641.289 243.109 640.266H241.68C242.023 642.031 243.5 643.188 245.422 643.188ZM245.5 637.875C244.023 637.875 242.938 636.805 242.938 635.336C242.938 633.922 244.078 632.797 245.523 632.797C246.977 632.797 248.102 633.93 248.102 635.375C248.102 636.812 246.992 637.875 245.5 637.875ZM251.594 631.727V643H255.383C258.734 643 260.703 640.914 260.703 637.359C260.703 633.812 258.727 631.727 255.383 631.727H251.594ZM253 632.992H255.289C257.852 632.992 259.266 634.555 259.266 637.375C259.266 640.172 257.844 641.734 255.289 641.734H253V632.992ZM265.859 643.188C268.617 643.188 270.227 640.969 270.227 637.172C270.227 635.945 270.047 634.93 269.672 634.062C268.984 632.445 267.641 631.531 265.945 631.531C263.633 631.531 261.953 633.156 261.953 635.383C261.953 637.523 263.547 639.109 265.695 639.109C267.133 639.109 268.367 638.383 268.844 637.266C268.852 637.266 268.852 637.266 268.859 637.266H268.867C268.828 640.258 267.75 641.961 265.875 641.961C264.758 641.961 263.844 641.289 263.547 640.266H262.117C262.461 642.031 263.938 643.188 265.859 643.188ZM265.938 637.875C264.461 637.875 263.375 636.805 263.375 635.336C263.375 633.922 264.516 632.797 265.961 632.797C267.414 632.797 268.539 633.93 268.539 635.375C268.539 636.812 267.43 637.875 265.938 637.875Z" fill="#121212"/>
<path d="M505.496 465.664C503.888 465.664 502.712 466.216 501.92 467.128V461.2H498.32V478H501.92V476.872C502.712 477.784 503.888 478.336 505.496 478.336C508.64 478.336 511.232 475.576 511.232 472C511.232 468.424 508.64 465.664 505.496 465.664ZM504.776 474.928C503.12 474.928 501.92 473.8 501.92 472C501.92 470.2 503.12 469.072 504.776 469.072C506.432 469.072 507.632 470.2 507.632 472C507.632 473.8 506.432 474.928 504.776 474.928ZM522.081 466V467.224C521.289 466.24 520.137 465.664 518.577 465.664C515.169 465.664 512.673 468.448 512.673 471.76C512.673 475.072 515.169 477.856 518.577 477.856C520.137 477.856 521.289 477.28 522.081 476.296V477.4C522.081 479.104 521.049 479.968 519.369 479.968C517.785 479.968 517.089 479.296 516.633 478.456L513.561 480.232C514.665 482.2 516.753 483.136 519.249 483.136C522.441 483.136 525.585 481.432 525.585 477.4V466H522.081ZM519.177 474.544C517.473 474.544 516.273 473.416 516.273 471.76C516.273 470.104 517.473 468.976 519.177 468.976C520.881 468.976 522.081 470.104 522.081 471.76C522.081 473.416 520.881 474.544 519.177 474.544ZM528.346 472.552H537.466V469.096H528.346V472.552ZM540.226 478H543.826V460.48H540.226V478ZM548.261 464.944C549.437 464.944 550.421 463.96 550.421 462.784C550.421 461.608 549.437 460.624 548.261 460.624C547.085 460.624 546.101 461.608 546.101 462.784C546.101 463.96 547.085 464.944 548.261 464.944ZM546.461 478H550.061V466H546.461V478ZM561.503 466V467.224C560.711 466.24 559.559 465.664 557.999 465.664C554.591 465.664 552.095 468.448 552.095 471.76C552.095 475.072 554.591 477.856 557.999 477.856C559.559 477.856 560.711 477.28 561.503 476.296V477.4C561.503 479.104 560.471 479.968 558.791 479.968C557.207 479.968 556.511 479.296 556.055 478.456L552.983 480.232C554.087 482.2 556.175 483.136 558.671 483.136C561.863 483.136 565.007 481.432 565.007 477.4V466H561.503ZM558.599 474.544C556.895 474.544 555.695 473.416 555.695 471.76C555.695 470.104 556.895 468.976 558.599 468.976C560.303 468.976 561.503 470.104 561.503 471.76C561.503 473.416 560.303 474.544 558.599 474.544ZM574.68 465.664C573.096 465.664 571.896 466.24 571.248 467.128V461.2H567.648V478H571.248V471.448C571.248 469.744 572.16 468.976 573.48 468.976C574.632 468.976 575.568 469.672 575.568 471.16V478H579.168V470.632C579.168 467.392 577.104 465.664 574.68 465.664ZM588.672 469.456V466H586.2V462.64L582.6 463.72V466H580.68V469.456H582.6V473.704C582.6 477.064 583.968 478.48 588.672 478V474.736C587.088 474.832 586.2 474.736 586.2 473.704V469.456H588.672Z" fill="#121212"/>
<path d="M501.867 507H502.984L503.625 503.852H505.672L505.891 502.727H503.852L504.438 499.883H506.398L506.617 498.766H504.672L505.297 495.727H504.18L503.547 498.766H501L501.609 495.727H500.5L499.867 498.766H497.938L497.711 499.883H499.641L499.07 502.727H497.219L497 503.852H498.828L498.195 507H499.305L499.945 503.852H502.508L501.867 507ZM500.164 502.75L500.75 499.867H503.328L502.742 502.75H500.164ZM509.125 507V502.117H514.117V500.867H509.125V496.992H514.562V495.727H507.719V507H509.125ZM520.07 507.195C522.383 507.195 524.062 505.57 524.062 503.344C524.062 501.203 522.469 499.617 520.32 499.617C518.922 499.617 517.68 500.344 517.172 501.445H517.148C517.195 498.445 518.266 496.773 520.148 496.773C521.266 496.773 522.172 497.43 522.477 498.453H523.906C523.547 496.68 522.078 495.531 520.164 495.531C517.406 495.531 515.789 497.758 515.789 501.555C515.789 502.773 515.969 503.789 516.344 504.656C517.039 506.281 518.383 507.195 520.07 507.195ZM520.055 505.945C518.609 505.945 517.484 504.797 517.484 503.352C517.484 501.914 518.586 500.852 520.078 500.852C521.57 500.852 522.633 501.914 522.633 503.391C522.633 504.812 521.492 505.945 520.055 505.945ZM527.156 507V502.117H532.148V500.867H527.156V496.992H532.594V495.727H525.75V507H527.156ZM538.102 507.195C540.414 507.195 542.094 505.57 542.094 503.344C542.094 501.203 540.5 499.617 538.352 499.617C536.953 499.617 535.711 500.344 535.203 501.445H535.18C535.227 498.445 536.297 496.773 538.18 496.773C539.297 496.773 540.203 497.43 540.508 498.453H541.938C541.578 496.68 540.109 495.531 538.195 495.531C535.438 495.531 533.82 497.758 533.82 501.555C533.82 502.773 534 503.789 534.375 504.656C535.07 506.281 536.414 507.195 538.102 507.195ZM538.086 505.945C536.641 505.945 535.516 504.797 535.516 503.352C535.516 501.914 536.617 500.852 538.109 500.852C539.602 500.852 540.664 501.914 540.664 503.391C540.664 504.812 539.523 505.945 538.086 505.945ZM545.188 507V502.117H550.18V500.867H545.188V496.992H550.625V495.727H543.781V507H545.188ZM556.133 507.195C558.445 507.195 560.125 505.57 560.125 503.344C560.125 501.203 558.531 499.617 556.383 499.617C554.984 499.617 553.742 500.344 553.234 501.445H553.211C553.258 498.445 554.328 496.773 556.211 496.773C557.328 496.773 558.234 497.43 558.539 498.453H559.969C559.609 496.68 558.141 495.531 556.227 495.531C553.469 495.531 551.852 497.758 551.852 501.555C551.852 502.773 552.031 503.789 552.406 504.656C553.102 506.281 554.445 507.195 556.133 507.195ZM556.117 505.945C554.672 505.945 553.547 504.797 553.547 503.352C553.547 501.914 554.648 500.852 556.141 500.852C557.633 500.852 558.695 501.914 558.695 503.391C558.695 504.812 557.555 505.945 556.117 505.945Z" fill="#121212"/>
<path d="M505.496 609.664C503.888 609.664 502.712 610.216 501.92 611.128V605.2H498.32V622H501.92V620.872C502.712 621.784 503.888 622.336 505.496 622.336C508.64 622.336 511.232 619.576 511.232 616C511.232 612.424 508.64 609.664 505.496 609.664ZM504.776 618.928C503.12 618.928 501.92 617.8 501.92 616C501.92 614.2 503.12 613.072 504.776 613.072C506.432 613.072 507.632 614.2 507.632 616C507.632 617.8 506.432 618.928 504.776 618.928ZM522.081 610V611.224C521.289 610.24 520.137 609.664 518.577 609.664C515.169 609.664 512.673 612.448 512.673 615.76C512.673 619.072 515.169 621.856 518.577 621.856C520.137 621.856 521.289 621.28 522.081 620.296V621.4C522.081 623.104 521.049 623.968 519.369 623.968C517.785 623.968 517.089 623.296 516.633 622.456L513.561 624.232C514.665 626.2 516.753 627.136 519.249 627.136C522.441 627.136 525.585 625.432 525.585 621.4V610H522.081ZM519.177 618.544C517.473 618.544 516.273 617.416 516.273 615.76C516.273 614.104 517.473 612.976 519.177 612.976C520.881 612.976 522.081 614.104 522.081 615.76C522.081 617.416 520.881 618.544 519.177 618.544ZM542.938 605.2V611.128C542.146 610.216 540.97 609.664 539.362 609.664C536.218 609.664 533.626 612.424 533.626 616C533.626 619.576 536.218 622.336 539.362 622.336C540.97 622.336 542.146 621.784 542.938 620.872V622H546.538V605.2H542.938ZM540.082 618.928C538.426 618.928 537.226 617.8 537.226 616C537.226 614.2 538.426 613.072 540.082 613.072C541.738 613.072 542.938 614.2 542.938 616C542.938 617.8 541.738 618.928 540.082 618.928ZM557.891 610V611.128C557.099 610.216 555.923 609.664 554.315 609.664C551.171 609.664 548.579 612.424 548.579 616C548.579 619.576 551.171 622.336 554.315 622.336C555.923 622.336 557.099 621.784 557.891 620.872V622H561.491V610H557.891ZM555.035 618.928C553.379 618.928 552.179 617.8 552.179 616C552.179 614.2 553.379 613.072 555.035 613.072C556.691 613.072 557.891 614.2 557.891 616C557.891 617.8 556.691 618.928 555.035 618.928ZM567.733 612.136V610H564.133V622H567.733V616.576C567.733 614.2 569.845 613.6 571.333 613.84V609.76C569.821 609.76 568.213 610.528 567.733 612.136ZM584.535 622L580.047 616L584.415 610H580.215L576.615 615.256V605.2H573.015V622H576.615V616.696L580.455 622H584.535Z" fill="#121212"/>
<path d="M501.867 651H502.984L503.625 647.852H505.672L505.891 646.727H503.852L504.438 643.883H506.398L506.617 642.766H504.672L505.297 639.727H504.18L503.547 642.766H501L501.609 639.727H500.5L499.867 642.766H497.938L497.711 643.883H499.641L499.07 646.727H497.219L497 647.852H498.828L498.195 651H499.305L499.945 647.852H502.508L501.867 651ZM500.164 646.75L500.75 643.867H503.328L502.742 646.75H500.164ZM510.414 651H511.773V639.727H510.398L507.398 641.883V643.367L510.383 641.219H510.414V651ZM514.562 642.977V642.984H515.922V642.977C515.922 641.719 516.922 640.766 518.242 640.766C519.484 640.766 520.477 641.633 520.477 642.719C520.477 643.656 520.117 644.258 518.602 645.852L514.633 650.031V651H522.07V649.75H516.578V649.719L519.43 646.773C521.312 644.828 521.883 643.891 521.883 642.633C521.883 640.906 520.297 639.539 518.281 639.539C516.156 639.539 514.562 641.008 514.562 642.977ZM526.57 651H527.93V639.727H526.555L523.555 641.883V643.367L526.539 641.219H526.57V651ZM530.719 642.977V642.984H532.078V642.977C532.078 641.719 533.078 640.766 534.398 640.766C535.641 640.766 536.633 641.633 536.633 642.719C536.633 643.656 536.273 644.258 534.758 645.852L530.789 650.031V651H538.227V649.75H532.734V649.719L535.586 646.773C537.469 644.828 538.039 643.891 538.039 642.633C538.039 640.906 536.453 639.539 534.438 639.539C532.312 639.539 530.719 641.008 530.719 642.977ZM542.727 651H544.086V639.727H542.711L539.711 641.883V643.367L542.695 641.219H542.727V651ZM546.875 642.977V642.984H548.234V642.977C548.234 641.719 549.234 640.766 550.555 640.766C551.797 640.766 552.789 641.633 552.789 642.719C552.789 643.656 552.43 644.258 550.914 645.852L546.945 650.031V651H554.383V649.75H548.891V649.719L551.742 646.773C553.625 644.828 554.195 643.891 554.195 642.633C554.195 640.906 552.609 639.539 550.594 639.539C548.469 639.539 546.875 641.008 546.875 642.977Z" fill="#121212"/>
<path d="M204.867 507H205.984L206.625 503.852H208.672L208.891 502.727H206.852L207.438 499.883H209.398L209.617 498.766H207.672L208.297 495.727H207.18L206.547 498.766H204L204.609 495.727H203.5L202.867 498.766H200.938L200.711 499.883H202.641L202.07 502.727H200.219L200 503.852H201.828L201.195 507H202.305L202.945 503.852H205.508L204.867 507ZM203.164 502.75L203.75 499.867H206.328L205.742 502.75H203.164ZM215.359 507.188C217.852 507.188 219.523 505.945 220.039 503.719H218.617C218.211 505.094 217.023 505.891 215.367 505.891C213.141 505.891 211.727 504.125 211.727 501.359C211.727 498.617 213.156 496.836 215.359 496.836C216.969 496.836 218.258 497.805 218.617 499.281H220.039C219.68 497.031 217.812 495.539 215.359 495.539C212.273 495.539 210.281 497.82 210.281 501.359C210.281 504.93 212.25 507.188 215.359 507.188ZM225.109 507.188C227.867 507.188 229.477 504.969 229.477 501.172C229.477 499.945 229.297 498.93 228.922 498.062C228.234 496.445 226.891 495.531 225.195 495.531C222.883 495.531 221.203 497.156 221.203 499.383C221.203 501.523 222.797 503.109 224.945 503.109C226.383 503.109 227.617 502.383 228.094 501.266C228.102 501.266 228.102 501.266 228.109 501.266H228.117C228.078 504.258 227 505.961 225.125 505.961C224.008 505.961 223.094 505.289 222.797 504.266H221.367C221.711 506.031 223.188 507.188 225.109 507.188ZM225.188 501.875C223.711 501.875 222.625 500.805 222.625 499.336C222.625 497.922 223.766 496.797 225.211 496.797C226.664 496.797 227.789 497.93 227.789 499.375C227.789 500.812 226.68 501.875 225.188 501.875ZM234.977 507.188C237.328 507.188 238.992 505.602 238.992 503.336C238.992 501.148 237.43 499.562 235.266 499.562C234.188 499.562 233.25 499.969 232.742 500.648H232.711L233.055 496.977H238.352V495.727H231.898L231.281 502.039H232.602C233.062 501.25 233.961 500.773 235.016 500.773C236.516 500.773 237.586 501.859 237.586 503.375C237.586 504.891 236.523 505.953 234.992 505.953C233.641 505.953 232.617 505.125 232.492 503.922H231.109C231.227 505.844 232.82 507.188 234.977 507.188ZM244.336 507.188C246.688 507.188 248.352 505.602 248.352 503.336C248.352 501.148 246.789 499.562 244.625 499.562C243.547 499.562 242.609 499.969 242.102 500.648H242.07L242.414 496.977H247.711V495.727H241.258L240.641 502.039H241.961C242.422 501.25 243.32 500.773 244.375 500.773C245.875 500.773 246.945 501.859 246.945 503.375C246.945 504.891 245.883 505.953 244.352 505.953C243 505.953 241.977 505.125 241.852 503.922H240.469C240.586 505.844 242.18 507.188 244.336 507.188ZM253.695 507.188C256.047 507.188 257.711 505.602 257.711 503.336C257.711 501.148 256.148 499.562 253.984 499.562C252.906 499.562 251.969 499.969 251.461 500.648H251.43L251.773 496.977H257.07V495.727H250.617L250 502.039H251.32C251.781 501.25 252.68 500.773 253.734 500.773C255.234 500.773 256.305 501.859 256.305 503.375C256.305 504.891 255.242 505.953 253.711 505.953C252.359 505.953 251.336 505.125 251.211 503.922H249.828C249.945 505.844 251.539 507.188 253.695 507.188ZM263.055 507.188C265.406 507.188 267.07 505.602 267.07 503.336C267.07 501.148 265.508 499.562 263.344 499.562C262.266 499.562 261.328 499.969 260.82 500.648H260.789L261.133 496.977H266.43V495.727H259.977L259.359 502.039H260.68C261.141 501.25 262.039 500.773 263.094 500.773C264.594 500.773 265.664 501.859 265.664 503.375C265.664 504.891 264.602 505.953 263.07 505.953C261.719 505.953 260.695 505.125 260.57 503.922H259.188C259.305 505.844 260.898 507.188 263.055 507.188Z" fill="#121212"/>
<path d="M304.809 248.289C304.973 251.348 307.504 253.281 311.254 253.281C315.262 253.281 317.781 251.301 317.781 248.137C317.781 245.664 316.34 244.27 312.871 243.449L311.008 242.992C308.828 242.453 307.938 241.75 307.938 240.555C307.938 239.055 309.332 238.023 311.371 238.023C313.41 238.023 314.805 239.043 314.957 240.73H317.512C317.43 237.812 314.98 235.809 311.406 235.809C307.797 235.809 305.254 237.812 305.254 240.73C305.254 243.086 306.695 244.539 309.801 245.289L311.992 245.816C314.184 246.355 315.109 247.141 315.109 248.453C315.109 249.965 313.574 251.066 311.441 251.066C309.215 251.066 307.586 249.965 307.398 248.289H304.809ZM322.762 253V245.922H330.027V243.707H322.762V238.352H330.695V236.09H320.137V253H322.762ZM337.855 236.09V253H340.48V247.223H344.113C347.43 247.223 349.762 244.949 349.762 241.645C349.762 238.352 347.477 236.09 344.195 236.09H337.855ZM340.48 238.305H343.504C345.777 238.305 347.078 239.523 347.078 241.656C347.078 243.789 345.777 245.02 343.492 245.02H340.48V238.305ZM351.754 253H354.285V245.617C354.285 243.871 355.293 242.781 356.922 242.781C357.414 242.781 357.859 242.84 358.059 242.922V240.566C357.871 240.531 357.555 240.473 357.191 240.473C355.738 240.473 354.637 241.328 354.227 242.77H354.168V240.672H351.754V253ZM364.387 253.234C367.914 253.234 370.234 250.809 370.234 246.836C370.234 242.875 367.902 240.449 364.387 240.449C360.871 240.449 358.539 242.875 358.539 246.836C358.539 250.809 360.859 253.234 364.387 253.234ZM364.387 251.148C362.406 251.148 361.117 249.578 361.117 246.836C361.117 244.105 362.406 242.535 364.387 242.535C366.367 242.535 367.656 244.105 367.656 246.836C367.656 249.578 366.379 251.148 364.387 251.148ZM377.371 236.09V253H383.336C388.375 253 391.34 249.859 391.34 244.516C391.34 239.184 388.363 236.09 383.336 236.09H377.371ZM379.996 238.352H383.09C386.664 238.352 388.656 240.555 388.656 244.539C388.656 248.535 386.676 250.727 383.09 250.727H379.996V238.352ZM393.625 253H396.156V240.672H393.625V253ZM394.891 238.867C395.711 238.867 396.367 238.223 396.367 237.426C396.367 236.617 395.711 235.973 394.891 235.973C394.082 235.973 393.426 236.617 393.426 237.426C393.426 238.223 394.082 238.867 394.891 238.867ZM398.523 244.164C398.523 245.887 399.648 247.047 401.875 247.586L404.078 248.125C405.367 248.453 405.836 248.887 405.836 249.672C405.836 250.668 404.898 251.301 403.375 251.301C401.828 251.301 400.914 250.645 400.715 249.461H398.207C398.406 251.723 400.34 253.234 403.258 253.234C406.281 253.234 408.379 251.688 408.379 249.438C408.379 247.621 407.441 246.684 404.957 246.086L402.883 245.605C401.605 245.289 400.996 244.773 400.996 244.012C400.996 243.039 401.91 242.371 403.281 242.371C404.699 242.371 405.602 243.062 405.719 244.176H408.098C408.016 241.984 406.094 240.449 403.352 240.449C400.469 240.449 398.523 241.961 398.523 244.164ZM416.77 240.473C414.988 240.473 413.57 241.375 412.844 242.793H412.797V240.672H410.348V257.078H412.879V250.973H412.938C413.641 252.344 415.047 253.211 416.816 253.211C419.91 253.211 421.961 250.738 421.961 246.836C421.961 242.934 419.898 240.473 416.77 240.473ZM416.102 251.066C414.156 251.066 412.867 249.402 412.867 246.836C412.867 244.293 414.168 242.605 416.102 242.605C418.105 242.605 419.359 244.258 419.359 246.836C419.359 249.426 418.105 251.066 416.102 251.066ZM424.012 253H426.543V236.09H424.012V253ZM433.457 251.207C432.098 251.207 431.207 250.504 431.207 249.426C431.207 248.371 432.062 247.703 433.574 247.598L436.609 247.41V248.383C436.609 249.988 435.227 251.207 433.457 251.207ZM432.754 253.211C434.371 253.211 435.93 252.344 436.645 250.973H436.703V253H439.129V244.504C439.129 242.031 437.219 240.449 434.23 240.449C431.184 240.449 429.285 242.09 429.145 244.316H431.535C431.758 243.215 432.672 242.512 434.137 242.512C435.684 242.512 436.609 243.332 436.609 244.703V245.652L433.234 245.852C430.305 246.016 428.652 247.34 428.652 249.496C428.652 251.711 430.34 253.211 432.754 253.211ZM442.809 257.594C445.375 257.594 446.582 256.633 447.637 253.645L452.266 240.672H449.594L446.465 250.703H446.43L443.301 240.672H440.559L445.012 253.012C445.012 253.023 444.789 253.75 444.789 253.773C444.402 255.039 443.781 255.531 442.598 255.531C442.387 255.531 441.965 255.531 441.777 255.484V257.535C441.965 257.57 442.609 257.594 442.809 257.594ZM476.043 253V236.09H472.996L467.535 249.438H467.441L461.969 236.09H458.934V253H461.324V240.555H461.406L466.516 252.871H468.461L473.559 240.555H473.641V253H476.043ZM484.012 242.488C485.781 242.488 486.977 243.812 487.035 245.699H480.871C481 243.836 482.242 242.488 484.012 242.488ZM487.023 249.379C486.684 250.457 485.617 251.184 484.176 251.184C482.148 251.184 480.859 249.766 480.859 247.621V247.469H489.566V246.602C489.566 242.863 487.434 240.449 484.012 240.449C480.531 240.449 478.305 243.027 478.305 246.895C478.305 250.785 480.496 253.234 484.117 253.234C486.941 253.234 489.074 251.629 489.426 249.379H487.023ZM496.164 253.211C497.957 253.211 499.363 252.309 500.09 250.902H500.137V253H502.598V236.09H500.055V242.723H500.008C499.316 241.363 497.91 240.473 496.141 240.473C493.047 240.473 490.984 242.945 490.984 246.836C490.984 250.727 493.047 253.211 496.164 253.211ZM496.832 242.605C498.777 242.605 500.078 244.281 500.078 246.836C500.078 249.414 498.777 251.066 496.832 251.066C494.828 251.066 493.574 249.438 493.574 246.836C493.574 244.246 494.828 242.605 496.832 242.605ZM505.281 253H507.812V240.672H505.281V253ZM506.547 238.867C507.367 238.867 508.023 238.223 508.023 237.426C508.023 236.617 507.367 235.973 506.547 235.973C505.738 235.973 505.082 236.617 505.082 237.426C505.082 238.223 505.738 238.867 506.547 238.867ZM520.973 240.672H518.441V247.855C518.441 249.777 517.34 251.043 515.512 251.043C513.766 251.043 512.875 250.035 512.875 248.16V240.672H510.344V248.652C510.344 251.477 511.984 253.223 514.668 253.223C516.555 253.223 517.809 252.391 518.488 250.914H518.547V253H520.973V240.672ZM523.48 253H526.012V245.383C526.012 243.801 527.078 242.629 528.578 242.629C530.008 242.629 530.91 243.531 530.91 244.949V253H533.395V245.301C533.395 243.742 534.438 242.629 535.938 242.629C537.438 242.629 538.293 243.543 538.293 245.137V253H540.836V244.527C540.836 242.078 539.242 240.461 536.805 240.461C535.047 240.461 533.594 241.375 532.961 242.875H532.902C532.41 241.34 531.168 240.461 529.457 240.461C527.793 240.461 526.504 241.375 525.953 242.746H525.895V240.672H523.48V253Z" fill="#121212"/>
<path d="M304.555 294.898C304.688 296.891 306.344 298.188 308.734 298.188C311.328 298.188 312.953 296.898 312.953 294.836C312.953 293.219 312.008 292.32 309.672 291.734L308.492 291.422C306.961 291.023 306.336 290.516 306.336 289.664C306.336 288.562 307.352 287.805 308.812 287.805C310.281 287.805 311.258 288.547 311.383 289.758H312.789C312.727 287.867 311.102 286.539 308.859 286.539C306.516 286.539 304.875 287.852 304.875 289.727C304.875 291.258 305.797 292.172 307.875 292.703L309.32 293.078C310.836 293.469 311.5 294.055 311.5 295.008C311.5 296.117 310.391 296.922 308.867 296.922C307.258 296.922 306.102 296.117 305.969 294.898H304.555ZM316 298V293.117H320.992V291.867H316V287.992H321.438V286.727H314.594V298H316ZM326.328 286.727V298H327.734V293.977H330.336C332.453 293.977 333.961 292.484 333.961 290.344C333.961 288.211 332.469 286.727 330.352 286.727H326.328ZM327.734 287.977H329.984C331.602 287.977 332.516 288.852 332.516 290.344C332.516 291.844 331.594 292.727 329.984 292.727H327.734V287.977ZM335.367 298H336.727V292.938C336.727 291.789 337.414 291.031 338.469 291.031C338.797 291.031 339.086 291.07 339.195 291.109V289.789C339.086 289.773 338.883 289.734 338.648 289.734C337.695 289.734 336.945 290.305 336.68 291.203H336.648V289.875H335.367V298ZM343.281 298.141C345.523 298.141 347.039 296.523 347.039 293.938C347.039 291.344 345.523 289.734 343.281 289.734C341.031 289.734 339.516 291.344 339.516 293.938C339.516 296.523 341.031 298.141 343.281 298.141ZM343.281 296.945C341.844 296.945 340.898 295.852 340.898 293.938C340.898 292.023 341.844 290.93 343.281 290.93C344.719 290.93 345.656 292.023 345.656 293.938C345.656 295.852 344.719 296.945 343.281 296.945ZM351.906 286.727V298H355.695C359.047 298 361.016 295.914 361.016 292.359C361.016 288.812 359.039 286.727 355.695 286.727H351.906ZM353.312 287.992H355.602C358.164 287.992 359.578 289.555 359.578 292.375C359.578 295.172 358.156 296.734 355.602 296.734H353.312V287.992ZM362.625 298H363.984V289.875H362.625V298ZM363.305 288.508C363.773 288.508 364.156 288.125 364.156 287.664C364.156 287.195 363.773 286.82 363.305 286.82C362.844 286.82 362.461 287.195 362.461 287.664C362.461 288.125 362.844 288.508 363.305 288.508ZM365.68 292.117C365.68 293.227 366.383 293.961 367.812 294.328L369.242 294.695C370.156 294.938 370.492 295.25 370.492 295.828C370.492 296.562 369.812 297.031 368.711 297.031C367.609 297.031 366.969 296.578 366.82 295.734H365.461C365.602 297.172 366.844 298.141 368.625 298.141C370.523 298.141 371.859 297.141 371.859 295.727C371.859 294.531 371.266 293.938 369.625 293.523L368.367 293.219C367.445 292.984 367.016 292.609 367.016 292.047C367.016 291.336 367.672 290.844 368.664 290.844C369.664 290.844 370.297 291.328 370.391 292.109H371.688C371.625 290.734 370.391 289.734 368.711 289.734C366.922 289.734 365.68 290.727 365.68 292.117ZM377.219 289.734C376.039 289.734 375.094 290.336 374.594 291.25H374.562V289.875H373.273V300.711H374.633V296.68H374.664C375.148 297.57 376.086 298.141 377.25 298.141C379.297 298.141 380.695 296.484 380.695 293.938C380.695 291.391 379.289 289.734 377.219 289.734ZM376.953 296.945C375.562 296.945 374.625 295.75 374.625 293.938C374.625 292.133 375.562 290.93 376.953 290.93C378.398 290.93 379.305 292.102 379.305 293.938C379.305 295.781 378.398 296.945 376.953 296.945ZM382.141 298H383.5V286.727H382.141V298ZM388.016 296.984C387.039 296.984 386.391 296.477 386.391 295.703C386.391 294.938 387.016 294.453 388.109 294.383L390.281 294.25V294.914C390.281 296.086 389.297 296.984 388.016 296.984ZM387.711 298.141C388.805 298.141 389.836 297.531 390.32 296.602H390.352V298H391.641V292.383C391.641 290.766 390.438 289.734 388.531 289.734C386.609 289.734 385.406 290.812 385.312 292.219H386.625C386.797 291.422 387.453 290.93 388.5 290.93C389.625 290.93 390.281 291.523 390.281 292.516V293.195L387.953 293.328C386.078 293.438 385.008 294.312 385.008 295.703C385.008 297.164 386.094 298.141 387.711 298.141ZM394.039 301.039C395.508 301.039 396.18 300.469 396.875 298.57L400.07 289.875H398.641L396.391 296.641H396.367L394.117 289.875H392.664L395.664 298.008L395.477 298.578C395.164 299.523 394.742 299.891 393.984 299.891C393.812 299.891 393.602 299.883 393.453 299.852V300.992C393.602 301.023 393.875 301.039 394.039 301.039ZM406.047 287.977H408.68C410.133 287.977 411.008 288.781 411.008 290.133C411.008 291.516 410.188 292.297 408.742 292.297H406.047V287.977ZM406.047 293.539H408.742L411.156 298H412.805L410.195 293.32C411.609 292.875 412.461 291.656 412.461 290.086C412.461 288.055 411.039 286.727 408.867 286.727H404.641V298H406.047V293.539ZM417.281 290.914C418.562 290.914 419.414 291.883 419.445 293.242H415.031C415.117 291.891 416.008 290.914 417.281 290.914ZM419.414 295.672C419.188 296.438 418.43 296.961 417.398 296.961C415.938 296.961 415.023 295.938 415.023 294.383V294.305H420.852V293.789C420.852 291.328 419.5 289.734 417.305 289.734C415.062 289.734 413.625 291.445 413.625 293.969C413.625 296.523 415.039 298.141 417.367 298.141C419.141 298.141 420.516 297.094 420.75 295.672H419.414ZM425.531 296.867C424.133 296.867 423.219 295.727 423.219 293.906C423.219 292.086 424.133 290.93 425.531 290.93C426.945 290.93 427.891 292.117 427.891 293.906C427.891 295.695 426.945 296.867 425.531 296.867ZM425.578 301.062C427.82 301.062 429.25 299.773 429.25 297.836V289.875H427.953V291.242H427.93C427.391 290.297 426.438 289.734 425.289 289.734C423.188 289.734 421.828 291.359 421.828 293.906C421.828 296.43 423.188 298.062 425.258 298.062C426.398 298.062 427.359 297.484 427.859 296.602H427.891V297.883C427.891 299.094 427.039 299.906 425.633 299.906C424.617 299.906 423.812 299.414 423.547 298.672H422.148C422.375 300.055 423.789 301.062 425.578 301.062ZM437.695 289.875H436.336V294.648C436.336 296.031 435.539 296.938 434.219 296.938C432.961 296.938 432.344 296.227 432.344 294.906V289.875H430.984V295.148C430.984 296.992 432.023 298.141 433.797 298.141C435.047 298.141 435.891 297.617 436.375 296.68H436.406V298H437.695V289.875ZM439.531 298H440.891V286.727H439.531V298ZM445.406 296.984C444.43 296.984 443.781 296.477 443.781 295.703C443.781 294.938 444.406 294.453 445.5 294.383L447.672 294.25V294.914C447.672 296.086 446.688 296.984 445.406 296.984ZM445.102 298.141C446.195 298.141 447.227 297.531 447.711 296.602H447.742V298H449.031V292.383C449.031 290.766 447.828 289.734 445.922 289.734C444 289.734 442.797 290.812 442.703 292.219H444.016C444.188 291.422 444.844 290.93 445.891 290.93C447.016 290.93 447.672 291.523 447.672 292.516V293.195L445.344 293.328C443.469 293.438 442.398 294.312 442.398 295.703C442.398 297.164 443.484 298.141 445.102 298.141ZM450.758 298H452.117V292.938C452.117 291.789 452.805 291.031 453.859 291.031C454.188 291.031 454.477 291.07 454.586 291.109V289.789C454.477 289.773 454.273 289.734 454.039 289.734C453.086 289.734 452.336 290.305 452.07 291.203H452.039V289.875H450.758V298Z" fill="#121212"/>
<path d="M1127.87 536H1128.98L1129.62 532.852H1131.67L1131.89 531.727H1129.85L1130.44 528.883H1132.4L1132.62 527.766H1130.67L1131.3 524.727H1130.18L1129.55 527.766H1127L1127.61 524.727H1126.5L1125.87 527.766H1123.94L1123.71 528.883H1125.64L1125.07 531.727H1123.22L1123 532.852H1124.83L1124.2 536H1125.3L1125.95 532.852H1128.51L1127.87 536ZM1126.16 531.75L1126.75 528.867H1129.33L1128.74 531.75H1126.16ZM1137.41 536.188C1139.8 536.188 1141.51 534.844 1141.51 532.953C1141.51 531.555 1140.54 530.398 1139.08 530.055V530.023C1140.3 529.633 1141.05 528.68 1141.05 527.508C1141.05 525.789 1139.52 524.539 1137.41 524.539C1135.32 524.539 1133.77 525.797 1133.77 527.5C1133.77 528.688 1134.53 529.648 1135.75 530.023V530.055C1134.3 530.391 1133.33 531.547 1133.33 532.953C1133.33 534.836 1135.03 536.188 1137.41 536.188ZM1137.41 534.961C1135.87 534.961 1134.76 534.078 1134.76 532.852C1134.76 531.617 1135.87 530.734 1137.41 530.734C1138.97 530.734 1140.07 531.609 1140.07 532.852C1140.07 534.078 1138.97 534.961 1137.41 534.961ZM1137.41 529.5C1136.09 529.5 1135.17 528.727 1135.17 527.633C1135.17 526.531 1136.09 525.75 1137.41 525.75C1138.73 525.75 1139.66 526.523 1139.66 527.633C1139.66 528.727 1138.73 529.5 1137.41 529.5ZM1147.08 536.188C1149.7 536.188 1151.22 533.914 1151.22 530.352C1151.22 526.812 1149.7 524.539 1147.08 524.539C1144.46 524.539 1142.92 526.828 1142.92 530.359C1142.92 533.922 1144.45 536.188 1147.08 536.188ZM1147.08 534.961C1145.31 534.961 1144.34 533.164 1144.34 530.352C1144.34 527.602 1145.34 525.773 1147.08 525.773C1148.82 525.773 1149.8 527.586 1149.8 530.359C1149.8 533.172 1148.84 534.961 1147.08 534.961ZM1156.71 536.188C1159.1 536.188 1160.8 534.844 1160.8 532.953C1160.8 531.555 1159.84 530.398 1158.38 530.055V530.023C1159.6 529.633 1160.34 528.68 1160.34 527.508C1160.34 525.789 1158.82 524.539 1156.71 524.539C1154.62 524.539 1153.07 525.797 1153.07 527.5C1153.07 528.688 1153.83 529.648 1155.05 530.023V530.055C1153.59 530.391 1152.62 531.547 1152.62 532.953C1152.62 534.836 1154.33 536.188 1156.71 536.188ZM1156.71 534.961C1155.16 534.961 1154.05 534.078 1154.05 532.852C1154.05 531.617 1155.16 530.734 1156.71 530.734C1158.27 530.734 1159.37 531.609 1159.37 532.852C1159.37 534.078 1158.27 534.961 1156.71 534.961ZM1156.71 529.5C1155.39 529.5 1154.47 528.727 1154.47 527.633C1154.47 526.531 1155.39 525.75 1156.71 525.75C1158.03 525.75 1158.95 526.523 1158.95 527.633C1158.95 528.727 1158.02 529.5 1156.71 529.5ZM1166.38 536.188C1169 536.188 1170.52 533.914 1170.52 530.352C1170.52 526.812 1168.99 524.539 1166.38 524.539C1163.76 524.539 1162.22 526.828 1162.22 530.359C1162.22 533.922 1163.74 536.188 1166.38 536.188ZM1166.38 534.961C1164.61 534.961 1163.63 533.164 1163.63 530.352C1163.63 527.602 1164.63 525.773 1166.38 525.773C1168.12 525.773 1169.1 527.586 1169.1 530.359C1169.1 533.172 1168.13 534.961 1166.38 534.961ZM1176.01 536.188C1178.4 536.188 1180.1 534.844 1180.1 532.953C1180.1 531.555 1179.13 530.398 1177.67 530.055V530.023C1178.9 529.633 1179.64 528.68 1179.64 527.508C1179.64 525.789 1178.12 524.539 1176.01 524.539C1173.91 524.539 1172.37 525.797 1172.37 527.5C1172.37 528.688 1173.12 529.648 1174.34 530.023V530.055C1172.89 530.391 1171.92 531.547 1171.92 532.953C1171.92 534.836 1173.62 536.188 1176.01 536.188ZM1176.01 534.961C1174.46 534.961 1173.35 534.078 1173.35 532.852C1173.35 531.617 1174.46 530.734 1176.01 530.734C1177.56 530.734 1178.66 531.609 1178.66 532.852C1178.66 534.078 1177.56 534.961 1176.01 534.961ZM1176.01 529.5C1174.69 529.5 1173.77 528.727 1173.77 527.633C1173.77 526.531 1174.69 525.75 1176.01 525.75C1177.33 525.75 1178.25 526.523 1178.25 527.633C1178.25 528.727 1177.32 529.5 1176.01 529.5ZM1185.67 536.188C1188.3 536.188 1189.81 533.914 1189.81 530.352C1189.81 526.812 1188.29 524.539 1185.67 524.539C1183.05 524.539 1181.52 526.828 1181.52 530.359C1181.52 533.922 1183.04 536.188 1185.67 536.188ZM1185.67 534.961C1183.91 534.961 1182.93 533.164 1182.93 530.352C1182.93 527.602 1183.93 525.773 1185.67 525.773C1187.41 525.773 1188.4 527.586 1188.4 530.359C1188.4 533.172 1187.43 534.961 1185.67 534.961Z" fill="#121212"/>
<path d="M778.867 643H779.984L780.625 639.852H782.672L782.891 638.727H780.852L781.438 635.883H783.398L783.617 634.766H781.672L782.297 631.727H781.18L780.547 634.766H778L778.609 631.727H777.5L776.867 634.766H774.938L774.711 635.883H776.641L776.07 638.727H774.219L774 639.852H775.828L775.195 643H776.305L776.945 639.852H779.508L778.867 643ZM777.164 638.75L777.75 635.867H780.328L779.742 638.75H777.164ZM789.359 643.188C791.852 643.188 793.523 641.945 794.039 639.719H792.617C792.211 641.094 791.023 641.891 789.367 641.891C787.141 641.891 785.727 640.125 785.727 637.359C785.727 634.617 787.156 632.836 789.359 632.836C790.969 632.836 792.258 633.805 792.617 635.281H794.039C793.68 633.031 791.812 631.539 789.359 631.539C786.273 631.539 784.281 633.82 784.281 637.359C784.281 640.93 786.25 643.188 789.359 643.188ZM799.109 643.188C801.867 643.188 803.477 640.969 803.477 637.172C803.477 635.945 803.297 634.93 802.922 634.062C802.234 632.445 800.891 631.531 799.195 631.531C796.883 631.531 795.203 633.156 795.203 635.383C795.203 637.523 796.797 639.109 798.945 639.109C800.383 639.109 801.617 638.383 802.094 637.266C802.102 637.266 802.102 637.266 802.109 637.266H802.117C802.078 640.258 801 641.961 799.125 641.961C798.008 641.961 797.094 641.289 796.797 640.266H795.367C795.711 642.031 797.188 643.188 799.109 643.188ZM799.188 637.875C797.711 637.875 796.625 636.805 796.625 635.336C796.625 633.922 797.766 632.797 799.211 632.797C800.664 632.797 801.789 633.93 801.789 635.375C801.789 636.812 800.68 637.875 799.188 637.875ZM808.977 643.188C811.328 643.188 812.992 641.602 812.992 639.336C812.992 637.148 811.43 635.562 809.266 635.562C808.188 635.562 807.25 635.969 806.742 636.648H806.711L807.055 632.977H812.352V631.727H805.898L805.281 638.039H806.602C807.062 637.25 807.961 636.773 809.016 636.773C810.516 636.773 811.586 637.859 811.586 639.375C811.586 640.891 810.523 641.953 808.992 641.953C807.641 641.953 806.617 641.125 806.492 639.922H805.109C805.227 641.844 806.82 643.188 808.977 643.188ZM818.336 643.188C820.688 643.188 822.352 641.602 822.352 639.336C822.352 637.148 820.789 635.562 818.625 635.562C817.547 635.562 816.609 635.969 816.102 636.648H816.07L816.414 632.977H821.711V631.727H815.258L814.641 638.039H815.961C816.422 637.25 817.32 636.773 818.375 636.773C819.875 636.773 820.945 637.859 820.945 639.375C820.945 640.891 819.883 641.953 818.352 641.953C817 641.953 815.977 641.125 815.852 639.922H814.469C814.586 641.844 816.18 643.188 818.336 643.188ZM827.695 643.188C830.047 643.188 831.711 641.602 831.711 639.336C831.711 637.148 830.148 635.562 827.984 635.562C826.906 635.562 825.969 635.969 825.461 636.648H825.43L825.773 632.977H831.07V631.727H824.617L824 638.039H825.32C825.781 637.25 826.68 636.773 827.734 636.773C829.234 636.773 830.305 637.859 830.305 639.375C830.305 640.891 829.242 641.953 827.711 641.953C826.359 641.953 825.336 641.125 825.211 639.922H823.828C823.945 641.844 825.539 643.188 827.695 643.188ZM837.055 643.188C839.406 643.188 841.07 641.602 841.07 639.336C841.07 637.148 839.508 635.562 837.344 635.562C836.266 635.562 835.328 635.969 834.82 636.648H834.789L835.133 632.977H840.43V631.727H833.977L833.359 638.039H834.68C835.141 637.25 836.039 636.773 837.094 636.773C838.594 636.773 839.664 637.859 839.664 639.375C839.664 640.891 838.602 641.953 837.07 641.953C835.719 641.953 834.695 641.125 834.57 639.922H833.188C833.305 641.844 834.898 643.188 837.055 643.188Z" fill="#121212"/>
<path d="M778.867 507H779.984L780.625 503.852H782.672L782.891 502.727H780.852L781.438 499.883H783.398L783.617 498.766H781.672L782.297 495.727H781.18L780.547 498.766H778L778.609 495.727H777.5L776.867 498.766H774.938L774.711 499.883H776.641L776.07 502.727H774.219L774 503.852H775.828L775.195 507H776.305L776.945 503.852H779.508L778.867 507ZM777.164 502.75L777.75 499.867H780.328L779.742 502.75H777.164ZM787.414 507H788.773V495.727H787.398L784.398 497.883V499.367L787.383 497.219H787.414V507ZM791.562 498.977V498.984H792.922V498.977C792.922 497.719 793.922 496.766 795.242 496.766C796.484 496.766 797.477 497.633 797.477 498.719C797.477 499.656 797.117 500.258 795.602 501.852L791.633 506.031V507H799.07V505.75H793.578V505.719L796.43 502.773C798.312 500.828 798.883 499.891 798.883 498.633C798.883 496.906 797.297 495.539 795.281 495.539C793.156 495.539 791.562 497.008 791.562 498.977ZM803.57 507H804.93V495.727H803.555L800.555 497.883V499.367L803.539 497.219H803.57V507ZM807.719 498.977V498.984H809.078V498.977C809.078 497.719 810.078 496.766 811.398 496.766C812.641 496.766 813.633 497.633 813.633 498.719C813.633 499.656 813.273 500.258 811.758 501.852L807.789 506.031V507H815.227V505.75H809.734V505.719L812.586 502.773C814.469 500.828 815.039 499.891 815.039 498.633C815.039 496.906 813.453 495.539 811.438 495.539C809.312 495.539 807.719 497.008 807.719 498.977ZM819.727 507H821.086V495.727H819.711L816.711 497.883V499.367L819.695 497.219H819.727V507ZM823.875 498.977V498.984H825.234V498.977C825.234 497.719 826.234 496.766 827.555 496.766C828.797 496.766 829.789 497.633 829.789 498.719C829.789 499.656 829.43 500.258 827.914 501.852L823.945 506.031V507H831.383V505.75H825.891V505.719L828.742 502.773C830.625 500.828 831.195 499.891 831.195 498.633C831.195 496.906 829.609 495.539 827.594 495.539C825.469 495.539 823.875 497.008 823.875 498.977Z" fill="#121212"/>
<path d="M74.56 183.2V189.632H69.28V183.2H65.44V200H69.28V193.328H74.56V200H78.4V183.2H74.56ZM84.4758 183.2L80.0838 184.784L81.0198 188.072L83.9958 187.256V200H87.8358V183.2H84.4758Z" fill="#121212"/>
<path d="M79.4922 253V236.09H76.8672V243.238H68.1836V236.09H65.5586V253H68.1836V245.512H76.8672V253H79.4922ZM82.2109 241.047V241.07H84.6953V241.035C84.6953 239.277 86.0898 237.941 87.9414 237.941C89.6992 237.941 91.0586 239.137 91.0586 240.637C91.0586 241.961 90.5195 242.852 88.457 244.996L82.3516 251.219V253H93.918V250.785H85.8906V250.727L90.1211 246.473C92.5938 243.941 93.6484 242.477 93.6484 240.508C93.6484 237.824 91.2461 235.773 88.0234 235.773C84.6602 235.773 82.2109 238 82.2109 241.047Z" fill="#121212"/>
<path d="M68.8281 289.734C67.6484 289.734 66.7031 290.336 66.2031 291.25H66.1719V289.875H64.8828V300.711H66.2422V296.68H66.2734C66.7578 297.57 67.6953 298.141 68.8594 298.141C70.9062 298.141 72.3047 296.484 72.3047 293.938C72.3047 291.391 70.8984 289.734 68.8281 289.734ZM68.5625 296.945C67.1719 296.945 66.2344 295.75 66.2344 293.938C66.2344 292.133 67.1719 290.93 68.5625 290.93C70.0078 290.93 70.9141 292.102 70.9141 293.938C70.9141 295.781 70.0078 296.945 68.5625 296.945Z" fill="#121212"/>
<path d="M170.528 200H181.952V196.304H176.312L179.096 193.496C180.632 191.96 181.712 190.232 181.712 188.216C181.712 184.832 179.024 182.864 176.024 182.864C173.696 182.864 171.44 184.04 170.36 186.536L173.6 188.432C174.056 187.376 174.896 186.608 176.072 186.608C177.2 186.608 177.872 187.328 177.872 188.384C177.872 189.368 177.152 190.352 176.168 191.36L170.528 197.216V200ZM196.243 193.76H194.562V190.16H190.675V193.76H187.171L192.523 183.2H188.395L183.043 193.76V197.312H190.675V200H194.562V197.312H196.243V193.76ZM204.98 187.664C203.372 187.664 202.196 188.216 201.404 189.128V188H197.804V204.8H201.404V198.872C202.196 199.784 203.372 200.336 204.98 200.336C208.124 200.336 210.716 197.576 210.716 194C210.716 190.424 208.124 187.664 204.98 187.664ZM204.26 196.928C202.604 196.928 201.404 195.8 201.404 194C201.404 192.2 202.604 191.072 204.26 191.072C205.916 191.072 207.116 192.2 207.116 194C207.116 195.8 205.916 196.928 204.26 196.928ZM223.314 200L219.018 193.904L223.17 188H219.042L216.954 190.976L214.866 188H210.738L214.89 193.904L210.594 200H214.722L216.954 196.832L219.186 200H223.314Z" fill="#121212"/>
<path d="M171.172 241.047V241.07H173.656V241.035C173.656 239.277 175.051 237.941 176.902 237.941C178.66 237.941 180.02 239.137 180.02 240.637C180.02 241.961 179.48 242.852 177.418 244.996L171.312 251.219V253H182.879V250.785H174.852V250.727L179.082 246.473C181.555 243.941 182.609 242.477 182.609 240.508C182.609 237.824 180.207 235.773 176.984 235.773C173.621 235.773 171.172 238 171.172 241.047ZM192.758 253H195.277V249.66H197.598V247.457H195.277V236.09H191.48C187.672 241.598 185.75 244.633 184.297 247.363V249.66H192.758V253ZM186.746 247.434C188.094 244.984 189.805 242.348 192.734 238.117H192.781V247.492H186.746V247.434ZM205.988 240.473C204.207 240.473 202.789 241.375 202.062 242.793H202.016V240.672H199.566V257.078H202.098V250.973H202.156C202.859 252.344 204.266 253.211 206.035 253.211C209.129 253.211 211.18 250.738 211.18 246.836C211.18 242.934 209.117 240.473 205.988 240.473ZM205.32 251.066C203.375 251.066 202.086 249.402 202.086 246.836C202.086 244.293 203.387 242.605 205.32 242.605C207.324 242.605 208.578 244.258 208.578 246.836C208.578 249.426 207.324 251.066 205.32 251.066ZM217.496 248.465L220.215 253H223.004L219.008 246.766L223.051 240.672H220.262L217.602 245.137H217.555L214.859 240.672H212.023L216.031 246.848L211.965 253H214.707L217.438 248.465H217.496Z" fill="#121212"/>
<path d="M173.789 298H175.148V286.727H173.773L170.773 288.883V290.367L173.758 288.219H173.789V298ZM182.086 298.195C184.398 298.195 186.078 296.57 186.078 294.344C186.078 292.203 184.484 290.617 182.336 290.617C180.938 290.617 179.695 291.344 179.188 292.445H179.164C179.211 289.445 180.281 287.773 182.164 287.773C183.281 287.773 184.188 288.43 184.492 289.453H185.922C185.562 287.68 184.094 286.531 182.18 286.531C179.422 286.531 177.805 288.758 177.805 292.555C177.805 293.773 177.984 294.789 178.359 295.656C179.055 297.281 180.398 298.195 182.086 298.195ZM182.07 296.945C180.625 296.945 179.5 295.797 179.5 294.352C179.5 292.914 180.602 291.852 182.094 291.852C183.586 291.852 184.648 292.914 184.648 294.391C184.648 295.812 183.508 296.945 182.07 296.945ZM191.5 289.734C190.32 289.734 189.375 290.336 188.875 291.25H188.844V289.875H187.555V300.711H188.914V296.68H188.945C189.43 297.57 190.367 298.141 191.531 298.141C193.578 298.141 194.977 296.484 194.977 293.938C194.977 291.391 193.57 289.734 191.5 289.734ZM191.234 296.945C189.844 296.945 188.906 295.75 188.906 293.938C188.906 292.133 189.844 290.93 191.234 290.93C192.68 290.93 193.586 292.102 193.586 293.938C193.586 295.781 192.68 296.945 191.234 296.945ZM199.07 294.906L201.016 298H202.523L199.82 293.883L202.562 289.875H201.047L199.117 292.922H199.086L197.133 289.875H195.617L198.336 293.938L195.57 298H197.078L199.039 294.906H199.07Z" fill="#121212"/>
<rect x="65" y="456" width="118" height="118" fill="#C95555" stroke="black" stroke-width="2"/>
<rect x="639" y="456" width="118" height="118" fill="#121212" stroke="black" stroke-width="2"/>
<rect x="65" y="592" width="118" height="118" fill="#D9D9D9" stroke="black" stroke-width="2"/>
<rect x="639" y="592" width="118" height="118" fill="#C95555" stroke="black" stroke-width="2"/>
<rect x="988" y="456" width="118" height="118" fill="#808080" stroke="black" stroke-width="2"/>
<rect x="362" y="456" width="118" height="118" fill="#F6F6F6" stroke="black" stroke-width="2"/>
<rect x="362" y="600" width="118" height="118" fill="#121212" stroke="black" stroke-width="2"/>
<rect x="0.5" y="0.5" width="1279" height="831" stroke="white"/>
</svg>
